<svg width="45" height="45" viewBox="0 0 45 45" fill="none" xmlns="http://www.w3.org/2000/svg">
<path d="M16.8797 33.6939L35.249 15.3267C35.4521 15.1236 35.6914 15.0151 35.9669 15.0012C36.2423 14.9873 36.4949 15.0958 36.7244 15.3267C36.954 15.5577 37.0695 15.806 37.0709 16.0718C37.0723 16.3375 36.9575 16.5852 36.7265 16.8147L18.0609 35.4929C17.7228 35.831 17.3291 36 16.8797 36C16.4303 36 16.0366 35.831 15.6985 35.4929L7.24637 27.0408C7.04324 26.8376 6.9375 26.5962 6.92915 26.3166C6.92081 26.0369 7.03072 25.7823 7.25889 25.5528C7.48706 25.3232 7.73541 25.2084 8.00393 25.2084C8.27245 25.2084 8.52079 25.3232 8.74897 25.5528L16.8797 33.6939Z" fill="white"/>
</svg>
