<svg width="56" height="56" viewBox="0 0 56 56" fill="none" xmlns="http://www.w3.org/2000/svg">
<path d="M44.1961 48.2451C44.8098 48.2451 45.3983 48.0013 45.8322 47.5674C46.2661 47.1335 46.5098 46.545 46.5098 45.9314V43.0485C46.5191 36.5561 37.3151 31.4706 28 31.4706C18.685 31.4706 9.49023 36.5561 9.49023 43.0485V45.9314C9.49023 46.545 9.734 47.1335 10.1679 47.5674C10.6018 48.0013 11.1903 48.2451 11.804 48.2451H44.1961ZM36.3387 16.0935C36.3387 17.1886 36.123 18.2729 35.704 19.2846C35.2849 20.2963 34.6707 21.2156 33.8964 21.9899C33.1221 22.7642 32.2028 23.3784 31.1911 23.7975C30.1794 24.2165 29.0951 24.4322 28 24.4322C26.905 24.4322 25.8207 24.2165 24.809 23.7975C23.7973 23.3784 22.878 22.7642 22.1037 21.9899C21.3294 21.2156 20.7152 20.2963 20.2961 19.2846C19.8771 18.2729 19.6614 17.1886 19.6614 16.0935C19.6614 13.882 20.5399 11.761 22.1037 10.1972C23.6675 8.63342 25.7885 7.75488 28 7.75488C30.2116 7.75488 32.3326 8.63342 33.8964 10.1972C35.4602 11.761 36.3387 13.882 36.3387 16.0935Z" stroke="#9277C5" stroke-width="3.47059" stroke-linecap="round" stroke-linejoin="round"/>
</svg>
