<svg width="166" height="46" viewBox="0 0 166 46" fill="none" xmlns="http://www.w3.org/2000/svg">
<path d="M1.69275 37.7022L10.2938 5.70215C10.8808 3.51808 12.8608 2 15.1224 2H158.778C161.973 2 164.348 4.95611 163.66 8.07649L156.605 40.0765C156.1 42.3681 154.069 44 151.723 44H6.52137C3.23213 44 0.83896 40.8787 1.69275 37.7022Z" fill="url(#paint0_linear_2874_17666)" stroke="url(#paint1_linear_2874_17666)" stroke-width="3"/>
<path d="M25.9801 17.58C26.1721 17.58 26.3401 17.634 26.4841 17.742C26.6281 17.85 26.7301 17.994 26.7901 18.174L30.5521 30H28.2481L25.4041 20.424C25.3561 20.232 25.3081 20.04 25.2601 19.848C25.2121 19.656 25.1701 19.47 25.1341 19.29H24.6301C24.5941 19.47 24.5521 19.656 24.5041 19.848C24.4561 20.04 24.4021 20.232 24.3421 20.424L21.5161 30H19.2121L22.9741 18.174C23.0221 17.994 23.1181 17.85 23.2621 17.742C23.4181 17.634 23.5921 17.58 23.7841 17.58H25.9801ZM28.0681 24.69V26.454H21.6781V24.69H28.0681ZM34.8477 20.946C35.4477 20.946 36.0357 21.03 36.6117 21.198C37.1877 21.354 37.7097 21.618 38.1777 21.99L38.0337 23.088C37.5657 22.956 37.1457 22.842 36.7737 22.746C36.4017 22.65 35.9877 22.602 35.5317 22.602C35.0997 22.602 34.7517 22.68 34.4877 22.836C34.2357 22.98 34.0437 23.262 33.9117 23.682C33.7917 24.102 33.7317 24.714 33.7317 25.518C33.7317 26.286 33.7917 26.88 33.9117 27.3C34.0317 27.708 34.2177 27.996 34.4697 28.164C34.7217 28.32 35.0517 28.398 35.4597 28.398C35.7837 28.398 36.0717 28.362 36.3237 28.29C36.5757 28.206 36.8337 28.086 37.0977 27.93C37.3617 27.762 37.6677 27.552 38.0157 27.3L38.1957 28.524C37.7877 28.992 37.2837 29.394 36.6837 29.73C36.0957 30.054 35.4117 30.216 34.6317 30.216C33.5037 30.216 32.6997 29.82 32.2197 29.028C31.7397 28.224 31.4997 27.06 31.4997 25.536C31.4997 24.372 31.6197 23.46 31.8597 22.8C32.1117 22.128 32.4837 21.654 32.9757 21.378C33.4797 21.09 34.1037 20.946 34.8477 20.946ZM39.9597 17.4V30H38.2497L38.0157 28.416L37.7817 28.236V22.332L37.8897 22.08C37.8417 21.732 37.8117 21.384 37.7997 21.036C37.7877 20.676 37.7817 20.31 37.7817 19.938V17.4H39.9597ZM45.4122 20.946C46.0122 20.946 46.6002 21.03 47.1762 21.198C47.7522 21.354 48.2742 21.618 48.7422 21.99L48.5982 23.088C48.1302 22.956 47.7102 22.842 47.3382 22.746C46.9662 22.65 46.5522 22.602 46.0962 22.602C45.6642 22.602 45.3162 22.68 45.0522 22.836C44.8002 22.98 44.6082 23.262 44.4762 23.682C44.3562 24.102 44.2962 24.714 44.2962 25.518C44.2962 26.286 44.3562 26.88 44.4762 27.3C44.5962 27.708 44.7822 27.996 45.0342 28.164C45.2862 28.32 45.6162 28.398 46.0242 28.398C46.3482 28.398 46.6362 28.362 46.8882 28.29C47.1402 28.206 47.3982 28.086 47.6622 27.93C47.9262 27.762 48.2322 27.552 48.5802 27.3L48.7602 28.524C48.3522 28.992 47.8482 29.394 47.2482 29.73C46.6602 30.054 45.9762 30.216 45.1962 30.216C44.0682 30.216 43.2642 29.82 42.7842 29.028C42.3042 28.224 42.0642 27.06 42.0642 25.536C42.0642 24.372 42.1842 23.46 42.4242 22.8C42.6762 22.128 43.0482 21.654 43.5402 21.378C44.0442 21.09 44.6682 20.946 45.4122 20.946ZM50.5242 17.4V30H48.8142L48.5802 28.416L48.3462 28.236V22.332L48.4542 22.08C48.4062 21.732 48.3762 21.384 48.3642 21.036C48.3522 20.676 48.3462 20.31 48.3462 19.938V17.4H50.5242ZM59.5257 18.642V27.336C59.5257 27.708 59.6037 27.972 59.7597 28.128C59.9277 28.284 60.2097 28.362 60.6057 28.362H61.8297L62.0637 29.892C61.8597 29.952 61.6137 30.006 61.3257 30.054C61.0377 30.102 60.7557 30.132 60.4797 30.144C60.2037 30.168 59.9697 30.18 59.7777 30.18C59.0097 30.18 58.4097 29.976 57.9777 29.568C57.5577 29.148 57.3477 28.548 57.3477 27.768V18.642H59.5257ZM62.1537 21.162V22.674H55.7817V21.252L57.5097 21.162H62.1537ZM67.76 20.946C68.84 20.946 69.698 21.096 70.334 21.396C70.982 21.696 71.444 22.188 71.72 22.872C72.008 23.556 72.152 24.462 72.152 25.59C72.152 26.718 72.008 27.624 71.72 28.308C71.444 28.98 70.982 29.472 70.334 29.784C69.698 30.084 68.84 30.234 67.76 30.234C66.704 30.234 65.852 30.084 65.204 29.784C64.568 29.472 64.106 28.98 63.818 28.308C63.53 27.624 63.386 26.718 63.386 25.59C63.386 24.462 63.53 23.556 63.818 22.872C64.106 22.188 64.568 21.696 65.204 21.396C65.852 21.096 66.704 20.946 67.76 20.946ZM67.76 22.602C67.232 22.602 66.812 22.692 66.5 22.872C66.2 23.04 65.984 23.34 65.852 23.772C65.72 24.204 65.654 24.81 65.654 25.59C65.654 26.37 65.72 26.976 65.852 27.408C65.984 27.84 66.2 28.14 66.5 28.308C66.812 28.476 67.232 28.56 67.76 28.56C68.3 28.56 68.726 28.476 69.038 28.308C69.35 28.14 69.566 27.84 69.686 27.408C69.818 26.976 69.884 26.37 69.884 25.59C69.884 24.81 69.818 24.204 69.686 23.772C69.566 23.34 69.35 23.04 69.038 22.872C68.726 22.692 68.3 22.602 67.76 22.602ZM93.6087 17.58L91.3767 29.37C91.3287 29.55 91.2267 29.7 91.0707 29.82C90.9267 29.94 90.7467 30 90.5307 30H88.2987C88.0947 30 87.9147 29.94 87.7587 29.82C87.6027 29.7 87.5127 29.544 87.4887 29.352L85.8507 20.73C85.8027 20.466 85.7607 20.208 85.7247 19.956C85.6887 19.704 85.6527 19.452 85.6167 19.2H85.2567C85.2207 19.452 85.1787 19.71 85.1307 19.974C85.0947 20.226 85.0587 20.478 85.0227 20.73L83.4027 29.352C83.3667 29.544 83.2707 29.7 83.1147 29.82C82.9587 29.94 82.7787 30 82.5747 30H80.3247C80.1087 30 79.9227 29.94 79.7667 29.82C79.6227 29.7 79.5327 29.55 79.4967 29.37L77.2647 17.58H79.5687L81.1347 26.67C81.1707 26.91 81.2007 27.174 81.2247 27.462C81.2607 27.75 81.2967 28.044 81.3327 28.344H81.7107C81.7587 28.068 81.8067 27.786 81.8547 27.498C81.9027 27.198 81.9507 26.916 81.9987 26.652L83.6007 18.282C83.6247 18.066 83.7147 17.898 83.8707 17.778C84.0267 17.646 84.2067 17.58 84.4107 17.58H86.4447C86.6607 17.58 86.8407 17.646 86.9847 17.778C87.1287 17.898 87.2247 18.066 87.2727 18.282L88.8747 26.67C88.9347 26.946 88.9827 27.228 89.0187 27.516C89.0667 27.804 89.1087 28.08 89.1447 28.344H89.5407C89.5647 28.068 89.5947 27.786 89.6307 27.498C89.6667 27.21 89.7027 26.94 89.7387 26.688L91.3047 17.58H93.6087ZM97.5664 21.162V30H95.4064V21.162H97.5664ZM96.9724 17.328C97.4044 17.328 97.6204 17.544 97.6204 17.976V18.984C97.6204 19.416 97.4044 19.632 96.9724 19.632H96.0004C95.5684 19.632 95.3524 19.416 95.3524 18.984V17.976C95.3524 17.544 95.5684 17.328 96.0004 17.328H96.9724ZM103.266 20.946C103.674 20.946 104.112 20.958 104.58 20.982C105.06 21.006 105.528 21.042 105.984 21.09C106.44 21.126 106.848 21.18 107.208 21.252L107.064 22.674C106.488 22.662 105.912 22.65 105.336 22.638C104.772 22.614 104.214 22.602 103.662 22.602C103.17 22.602 102.78 22.614 102.492 22.638C102.216 22.662 102.018 22.734 101.898 22.854C101.79 22.974 101.736 23.178 101.736 23.466C101.736 23.814 101.832 24.048 102.024 24.168C102.216 24.276 102.528 24.384 102.96 24.492L105.372 25.05C106.092 25.23 106.626 25.506 106.974 25.878C107.322 26.238 107.496 26.796 107.496 27.552C107.496 28.284 107.358 28.842 107.082 29.226C106.818 29.598 106.392 29.856 105.804 30C105.228 30.132 104.49 30.198 103.59 30.198C103.242 30.198 102.726 30.18 102.042 30.144C101.358 30.12 100.608 30.042 99.7924 29.91L99.9364 28.488C100.176 28.488 100.458 28.494 100.782 28.506C101.118 28.518 101.472 28.524 101.844 28.524C102.228 28.524 102.618 28.524 103.014 28.524C103.65 28.524 104.136 28.506 104.472 28.47C104.82 28.422 105.06 28.332 105.192 28.2C105.324 28.056 105.39 27.852 105.39 27.588C105.39 27.252 105.276 27.03 105.048 26.922C104.832 26.802 104.508 26.688 104.076 26.58L101.718 26.004C101.178 25.86 100.758 25.68 100.458 25.464C100.158 25.236 99.9424 24.96 99.8104 24.636C99.6784 24.3 99.6124 23.892 99.6124 23.412C99.6124 22.764 99.7324 22.26 99.9724 21.9C100.224 21.54 100.614 21.288 101.142 21.144C101.682 21 102.39 20.934 103.266 20.946ZM115.281 20.946C116.925 20.946 117.747 21.756 117.747 23.376V30H115.551V24.042C115.551 23.562 115.467 23.232 115.299 23.052C115.143 22.872 114.867 22.782 114.471 22.782C114.027 22.782 113.571 22.878 113.103 23.07C112.635 23.262 112.071 23.55 111.411 23.934L111.249 22.674C111.921 22.122 112.593 21.696 113.265 21.396C113.949 21.096 114.621 20.946 115.281 20.946ZM111.645 17.4L111.663 20.64C111.663 21.084 111.639 21.504 111.591 21.9C111.555 22.284 111.501 22.614 111.429 22.89L111.645 23.142V30H109.467V17.4H111.645ZM122.315 17.4V27.336C122.315 27.672 122.411 27.93 122.603 28.11C122.795 28.278 123.071 28.362 123.431 28.362H124.205L124.457 29.892C124.325 29.952 124.139 30.006 123.899 30.054C123.671 30.102 123.431 30.132 123.179 30.144C122.939 30.168 122.729 30.18 122.549 30.18C121.817 30.18 121.235 29.982 120.803 29.586C120.371 29.19 120.155 28.62 120.155 27.876V17.4H122.315ZM128.047 21.162V30H125.887V21.162H128.047ZM127.453 17.328C127.885 17.328 128.101 17.544 128.101 17.976V18.984C128.101 19.416 127.885 19.632 127.453 19.632H126.481C126.049 19.632 125.833 19.416 125.833 18.984V17.976C125.833 17.544 126.049 17.328 126.481 17.328H127.453ZM133.747 20.946C134.155 20.946 134.593 20.958 135.061 20.982C135.541 21.006 136.009 21.042 136.465 21.09C136.921 21.126 137.329 21.18 137.689 21.252L137.545 22.674C136.969 22.662 136.393 22.65 135.817 22.638C135.253 22.614 134.695 22.602 134.143 22.602C133.651 22.602 133.261 22.614 132.973 22.638C132.697 22.662 132.499 22.734 132.379 22.854C132.271 22.974 132.217 23.178 132.217 23.466C132.217 23.814 132.313 24.048 132.505 24.168C132.697 24.276 133.009 24.384 133.441 24.492L135.853 25.05C136.573 25.23 137.107 25.506 137.455 25.878C137.803 26.238 137.977 26.796 137.977 27.552C137.977 28.284 137.839 28.842 137.563 29.226C137.299 29.598 136.873 29.856 136.285 30C135.709 30.132 134.971 30.198 134.071 30.198C133.723 30.198 133.207 30.18 132.523 30.144C131.839 30.12 131.089 30.042 130.273 29.91L130.417 28.488C130.657 28.488 130.939 28.494 131.263 28.506C131.599 28.518 131.953 28.524 132.325 28.524C132.709 28.524 133.099 28.524 133.495 28.524C134.131 28.524 134.617 28.506 134.953 28.47C135.301 28.422 135.541 28.332 135.673 28.2C135.805 28.056 135.871 27.852 135.871 27.588C135.871 27.252 135.757 27.03 135.529 26.922C135.313 26.802 134.989 26.688 134.557 26.58L132.199 26.004C131.659 25.86 131.239 25.68 130.939 25.464C130.639 25.236 130.423 24.96 130.291 24.636C130.159 24.3 130.093 23.892 130.093 23.412C130.093 22.764 130.213 22.26 130.453 21.9C130.705 21.54 131.095 21.288 131.623 21.144C132.163 21 132.871 20.934 133.747 20.946ZM142.864 18.642V27.336C142.864 27.708 142.942 27.972 143.098 28.128C143.266 28.284 143.548 28.362 143.944 28.362H145.168L145.402 29.892C145.198 29.952 144.952 30.006 144.664 30.054C144.376 30.102 144.094 30.132 143.818 30.144C143.542 30.168 143.308 30.18 143.116 30.18C142.348 30.18 141.748 29.976 141.316 29.568C140.896 29.148 140.686 28.548 140.686 27.768V18.642H142.864ZM145.492 21.162V22.674H139.12V21.252L140.848 21.162H145.492Z" fill="white"/>
<defs>
<linearGradient id="paint0_linear_2874_17666" x1="0" y1="23" x2="165" y2="23" gradientUnits="userSpaceOnUse">
<stop stop-color="#121218"/>
<stop offset="1" stop-color="#474350"/>
</linearGradient>
<linearGradient id="paint1_linear_2874_17666" x1="60.458" y1="48.0746" x2="64.7337" y2="16.3543" gradientUnits="userSpaceOnUse">
<stop stop-color="white"/>
<stop offset="0.182692" stop-color="#8C8C8C"/>
<stop offset="0.278846" stop-color="#FF9584"/>
<stop offset="0.399038" stop-color="#DFED43"/>
<stop offset="0.495192" stop-color="#A0F885"/>
<stop offset="0.58953" stop-color="#74BFF7"/>
<stop offset="0.6706" stop-color="#7C72DB"/>
<stop offset="0.75167" stop-color="#8681A8"/>
<stop offset="1" stop-color="white"/>
</linearGradient>
</defs>
</svg>
