<svg width="500" height="62" viewBox="0 0 500 62" fill="none" xmlns="http://www.w3.org/2000/svg">
<path d="M4.4472 52.4599L32.7578 4.45988C33.6569 2.93552 35.2948 2 37.0646 2H492.027C495.715 2 498.134 5.85722 496.528 9.17751L473.306 57.1775C472.471 58.9035 470.722 60 468.805 60H8.75391C4.88424 60 2.48131 55.793 4.4472 52.4599Z" fill="#292035" stroke="url(#paint0_linear_2024_713)" stroke-width="4"/>
<path d="M208.365 23.152C209.117 23.152 209.757 23.176 210.285 23.224C210.813 23.256 211.301 23.312 211.749 23.392C212.197 23.456 212.661 23.552 213.141 23.68L212.877 25.912C212.381 25.88 211.917 25.856 211.485 25.84C211.053 25.808 210.589 25.784 210.093 25.768C209.613 25.752 209.037 25.744 208.365 25.744C207.437 25.744 206.709 25.928 206.181 26.296C205.653 26.664 205.277 27.28 205.053 28.144C204.845 29.008 204.741 30.2 204.741 31.72C204.741 33.24 204.845 34.432 205.053 35.296C205.277 36.16 205.653 36.776 206.181 37.144C206.709 37.512 207.437 37.696 208.365 37.696C209.437 37.696 210.333 37.68 211.053 37.648C211.789 37.6 212.509 37.536 213.213 37.456L213.477 39.664C212.757 39.888 212.013 40.048 211.245 40.144C210.477 40.24 209.517 40.288 208.365 40.288C206.701 40.288 205.373 40.016 204.381 39.472C203.389 38.912 202.669 38.008 202.221 36.76C201.789 35.512 201.573 33.832 201.573 31.72C201.573 29.608 201.789 27.928 202.221 26.68C202.669 25.432 203.389 24.536 204.381 23.992C205.373 23.432 206.701 23.152 208.365 23.152ZM221.183 27.928C222.623 27.928 223.767 28.128 224.615 28.528C225.479 28.928 226.095 29.584 226.463 30.496C226.847 31.408 227.039 32.616 227.039 34.12C227.039 35.624 226.847 36.832 226.463 37.744C226.095 38.64 225.479 39.296 224.615 39.712C223.767 40.112 222.623 40.312 221.183 40.312C219.775 40.312 218.639 40.112 217.775 39.712C216.927 39.296 216.311 38.64 215.927 37.744C215.543 36.832 215.351 35.624 215.351 34.12C215.351 32.616 215.543 31.408 215.927 30.496C216.311 29.584 216.927 28.928 217.775 28.528C218.639 28.128 219.775 27.928 221.183 27.928ZM221.183 30.136C220.479 30.136 219.919 30.256 219.503 30.496C219.103 30.72 218.815 31.12 218.639 31.696C218.463 32.272 218.375 33.08 218.375 34.12C218.375 35.16 218.463 35.968 218.639 36.544C218.815 37.12 219.103 37.52 219.503 37.744C219.919 37.968 220.479 38.08 221.183 38.08C221.903 38.08 222.471 37.968 222.887 37.744C223.303 37.52 223.591 37.12 223.751 36.544C223.927 35.968 224.015 35.16 224.015 34.12C224.015 33.08 223.927 32.272 223.751 31.696C223.591 31.12 223.303 30.72 222.887 30.496C222.471 30.256 221.903 30.136 221.183 30.136ZM237.529 27.928C239.721 27.928 240.817 29.008 240.817 31.168V40H237.913V32.056C237.913 31.416 237.801 30.976 237.577 30.736C237.353 30.496 236.977 30.376 236.449 30.376C235.857 30.376 235.249 30.512 234.625 30.784C234.001 31.04 233.249 31.416 232.369 31.912L232.249 30.16C233.113 29.44 233.993 28.888 234.889 28.504C235.785 28.12 236.665 27.928 237.529 27.928ZM232.153 28.216L232.441 30.52L232.681 30.856V40H229.777V28.216H232.153ZM247.891 24.856V36.448C247.891 36.944 247.995 37.296 248.203 37.504C248.427 37.712 248.803 37.816 249.331 37.816H250.963L251.275 39.856C251.003 39.936 250.675 40.008 250.291 40.072C249.907 40.136 249.531 40.176 249.163 40.192C248.795 40.224 248.483 40.24 248.227 40.24C247.203 40.24 246.403 39.968 245.827 39.424C245.267 38.864 244.987 38.064 244.987 37.024V24.856H247.891ZM251.395 28.216V30.232H242.899V28.336L245.203 28.216H251.395ZM256.518 28.216V40H253.638V28.216H256.518ZM255.726 23.104C256.302 23.104 256.59 23.392 256.59 23.968V25.312C256.59 25.888 256.302 26.176 255.726 26.176H254.43C253.854 26.176 253.566 25.888 253.566 25.312V23.968C253.566 23.392 253.854 23.104 254.43 23.104H255.726ZM267.622 27.928C269.814 27.928 270.91 29.008 270.91 31.168V40H268.006V32.056C268.006 31.416 267.894 30.976 267.67 30.736C267.446 30.496 267.07 30.376 266.542 30.376C265.95 30.376 265.342 30.512 264.718 30.784C264.094 31.04 263.342 31.416 262.462 31.912L262.342 30.16C263.206 29.44 264.086 28.888 264.982 28.504C265.878 28.12 266.758 27.928 267.622 27.928ZM262.246 28.216L262.534 30.52L262.774 30.856V40H259.87V28.216H262.246ZM276.929 28.216V36.184C276.913 36.776 277.025 37.2 277.265 37.456C277.521 37.712 277.929 37.84 278.489 37.84C279.049 37.84 279.609 37.72 280.169 37.48C280.729 37.24 281.409 36.88 282.209 36.4L282.497 38.128C281.601 38.848 280.737 39.392 279.905 39.76C279.073 40.128 278.209 40.312 277.313 40.312C275.121 40.312 274.025 39.232 274.025 37.072V28.216H276.929ZM284.825 28.216V40H282.521L282.209 37.72L281.921 37.384V28.216H284.825ZM293.345 27.928C295.249 27.928 296.617 28.264 297.449 28.936C298.281 29.592 298.705 30.568 298.721 31.864C298.737 32.936 298.481 33.752 297.953 34.312C297.441 34.856 296.585 35.128 295.385 35.128H288.665V33.328H294.593C295.137 33.328 295.481 33.184 295.625 32.896C295.785 32.608 295.865 32.256 295.865 31.84C295.849 31.184 295.657 30.728 295.289 30.472C294.937 30.216 294.329 30.088 293.465 30.088C292.713 30.088 292.129 30.192 291.713 30.4C291.297 30.608 291.001 30.984 290.825 31.528C290.665 32.072 290.585 32.856 290.585 33.88C290.585 34.968 290.689 35.808 290.897 36.4C291.105 36.992 291.449 37.4 291.929 37.624C292.409 37.832 293.049 37.936 293.849 37.936C294.441 37.936 295.121 37.912 295.889 37.864C296.673 37.816 297.425 37.752 298.145 37.672L298.433 39.52C298.001 39.696 297.505 39.84 296.945 39.952C296.385 40.064 295.801 40.144 295.193 40.192C294.601 40.256 294.041 40.288 293.513 40.288C292.073 40.288 290.913 40.08 290.033 39.664C289.169 39.232 288.537 38.56 288.137 37.648C287.753 36.736 287.561 35.56 287.561 34.12C287.561 32.568 287.753 31.344 288.137 30.448C288.537 29.536 289.161 28.888 290.009 28.504C290.873 28.12 291.985 27.928 293.345 27.928Z" fill="white"/>
<defs>
<linearGradient id="paint0_linear_2024_713" x1="183.206" y1="65.6269" x2="185.935" y2="21.1944" gradientUnits="userSpaceOnUse">
<stop stop-color="white"/>
<stop offset="0.182692" stop-color="#8C8C8C"/>
<stop offset="0.278846" stop-color="#FF9584"/>
<stop offset="0.399038" stop-color="#DFED43"/>
<stop offset="0.495192" stop-color="#A0F885"/>
<stop offset="0.58953" stop-color="#74BFF7"/>
<stop offset="0.6706" stop-color="#7C72DB"/>
<stop offset="0.75167" stop-color="#8681A8"/>
<stop offset="1" stop-color="white"/>
</linearGradient>
</defs>
</svg>
