<svg width="220" height="62" viewBox="0 0 220 62" fill="none" xmlns="http://www.w3.org/2000/svg">
<path d="M2.606 53.7547L14.9494 5.75474C15.5177 3.54483 17.5101 2 19.7919 2H212.835C216.012 2 218.383 4.92369 217.728 8.03195L207.603 56.032C207.115 58.3448 205.074 60 202.711 60H7.44845C4.18171 60 1.79241 56.9186 2.606 53.7547Z" fill="#121218" stroke="url(#paint0_linear_2271_494)" stroke-width="4"/>
<path d="M53.4831 23.392C54.3151 23.392 55.1631 23.392 56.0271 23.392C56.9071 23.392 57.7711 23.408 58.6191 23.44C59.4671 23.472 60.2671 23.52 61.0191 23.584L60.8751 25.816H54.3951C53.9471 25.816 53.6111 25.928 53.3871 26.152C53.1791 26.376 53.0751 26.728 53.0751 27.208V36.232C53.0751 36.712 53.1791 37.064 53.3871 37.288C53.6111 37.512 53.9471 37.624 54.3951 37.624H60.8751L61.0191 39.856C60.2671 39.92 59.4671 39.968 58.6191 40C57.7711 40.016 56.9071 40.024 56.0271 40.024C55.1631 40.04 54.3151 40.048 53.4831 40.048C52.4591 40.048 51.6351 39.768 51.0111 39.208C50.4031 38.632 50.0911 37.864 50.0751 36.904V26.536C50.0911 25.576 50.4031 24.816 51.0111 24.256C51.6351 23.68 52.4591 23.392 53.4831 23.392ZM50.5071 30.232H59.9631V32.44H50.5071V30.232ZM67.6746 27.928C68.4746 27.928 69.2586 28.04 70.0266 28.264C70.7946 28.472 71.4906 28.824 72.1146 29.32L71.9226 30.784C71.2986 30.608 70.7386 30.456 70.2426 30.328C69.7466 30.2 69.1946 30.136 68.5866 30.136C68.0106 30.136 67.5466 30.24 67.1946 30.448C66.8586 30.64 66.6026 31.016 66.4266 31.576C66.2666 32.136 66.1866 32.952 66.1866 34.024C66.1866 35.048 66.2666 35.84 66.4266 36.4C66.5866 36.944 66.8346 37.328 67.1706 37.552C67.5066 37.76 67.9466 37.864 68.4906 37.864C68.9226 37.864 69.3066 37.816 69.6426 37.72C69.9786 37.608 70.3226 37.448 70.6746 37.24C71.0266 37.016 71.4346 36.736 71.8986 36.4L72.1386 38.032C71.5946 38.656 70.9226 39.192 70.1226 39.64C69.3386 40.072 68.4266 40.288 67.3866 40.288C65.8826 40.288 64.8106 39.76 64.1706 38.704C63.5306 37.632 63.2106 36.08 63.2106 34.048C63.2106 32.496 63.3706 31.28 63.6906 30.4C64.0266 29.504 64.5226 28.872 65.1786 28.504C65.8506 28.12 66.6826 27.928 67.6746 27.928ZM74.4906 23.2V40H72.2106L71.8986 37.888L71.5866 37.648V29.776L71.7306 29.44C71.6666 28.976 71.6266 28.512 71.6106 28.048C71.5946 27.568 71.5866 27.08 71.5866 26.584V23.2H74.4906ZM80.7525 28.216V40H77.8725V28.216H80.7525ZM79.9605 23.104C80.5365 23.104 80.8245 23.392 80.8245 23.968V25.312C80.8245 25.888 80.5365 26.176 79.9605 26.176H78.6645C78.0885 26.176 77.8005 25.888 77.8005 25.312V23.968C77.8005 23.392 78.0885 23.104 78.6645 23.104H79.9605ZM87.9927 24.856V36.448C87.9927 36.944 88.0967 37.296 88.3047 37.504C88.5287 37.712 88.9047 37.816 89.4327 37.816H91.0647L91.3767 39.856C91.1047 39.936 90.7767 40.008 90.3927 40.072C90.0087 40.136 89.6327 40.176 89.2647 40.192C88.8967 40.224 88.5847 40.24 88.3287 40.24C87.3047 40.24 86.5047 39.968 85.9287 39.424C85.3687 38.864 85.0887 38.064 85.0887 37.024V24.856H87.9927ZM91.4967 28.216V30.232H83.0007V28.336L85.3047 28.216H91.4967ZM105.182 23.224C106.638 23.224 107.782 23.384 108.614 23.704C109.446 24.008 110.038 24.544 110.39 25.312C110.758 26.064 110.942 27.136 110.942 28.528C110.942 29.92 110.766 31 110.414 31.768C110.078 32.536 109.51 33.072 108.71 33.376C107.926 33.68 106.878 33.832 105.566 33.832C104.846 33.832 104.15 33.808 103.478 33.76C102.822 33.712 102.206 33.648 101.63 33.568C101.07 33.488 100.59 33.408 100.19 33.328C99.7897 33.232 99.5097 33.152 99.3497 33.088L99.4217 31.48C100.334 31.48 101.27 31.48 102.23 31.48C103.206 31.48 104.174 31.48 105.134 31.48C105.838 31.464 106.39 31.376 106.79 31.216C107.206 31.056 107.494 30.768 107.654 30.352C107.83 29.92 107.918 29.312 107.918 28.528C107.918 27.744 107.83 27.144 107.654 26.728C107.494 26.296 107.206 26 106.79 25.84C106.39 25.664 105.838 25.576 105.134 25.576C103.726 25.576 102.518 25.584 101.51 25.6C100.502 25.616 99.8137 25.64 99.4457 25.672L99.1097 23.44C99.7497 23.376 100.35 23.328 100.91 23.296C101.486 23.264 102.102 23.248 102.758 23.248C103.43 23.232 104.238 23.224 105.182 23.224ZM102.11 23.44V40H99.1097V23.44H102.11ZM115.704 28.216L116.088 30.52L116.352 30.856V40H113.448V28.216H115.704ZM121.464 27.928L121.176 30.616H120.336C119.712 30.616 119.08 30.72 118.44 30.928C117.8 31.136 117 31.448 116.04 31.864L115.848 30.16C116.68 29.456 117.528 28.912 118.392 28.528C119.256 28.128 120.088 27.928 120.888 27.928H121.464ZM128.526 27.928C129.966 27.928 131.11 28.128 131.958 28.528C132.822 28.928 133.438 29.584 133.806 30.496C134.19 31.408 134.382 32.616 134.382 34.12C134.382 35.624 134.19 36.832 133.806 37.744C133.438 38.64 132.822 39.296 131.958 39.712C131.11 40.112 129.966 40.312 128.526 40.312C127.118 40.312 125.982 40.112 125.118 39.712C124.27 39.296 123.654 38.64 123.27 37.744C122.886 36.832 122.694 35.624 122.694 34.12C122.694 32.616 122.886 31.408 123.27 30.496C123.654 29.584 124.27 28.928 125.118 28.528C125.982 28.128 127.118 27.928 128.526 27.928ZM128.526 30.136C127.822 30.136 127.262 30.256 126.846 30.496C126.446 30.72 126.158 31.12 125.982 31.696C125.806 32.272 125.718 33.08 125.718 34.12C125.718 35.16 125.806 35.968 125.982 36.544C126.158 37.12 126.446 37.52 126.846 37.744C127.262 37.968 127.822 38.08 128.526 38.08C129.246 38.08 129.814 37.968 130.23 37.744C130.646 37.52 130.934 37.12 131.094 36.544C131.27 35.968 131.358 35.16 131.358 34.12C131.358 33.08 131.27 32.272 131.094 31.696C130.934 31.12 130.646 30.72 130.23 30.496C129.814 30.256 129.246 30.136 128.526 30.136ZM141.753 22.744C142.121 22.744 142.601 22.76 143.193 22.792C143.785 22.824 144.297 22.88 144.729 22.96V24.904H142.785C142.113 24.904 141.641 25.048 141.369 25.336C141.097 25.624 140.961 26.128 140.961 26.848V40H138.057V26.488C138.057 25.704 138.177 25.04 138.417 24.496C138.657 23.936 139.041 23.504 139.569 23.2C140.113 22.896 140.841 22.744 141.753 22.744ZM146.385 28.216V30.232H135.969V28.336L138.153 28.216H146.385ZM149.097 28.216V40H146.193V28.216H149.097ZM148.281 23.032C148.873 23.032 149.169 23.32 149.169 23.896V25.24C149.169 25.816 148.873 26.104 148.281 26.104H147.009C146.433 26.104 146.145 25.816 146.145 25.24V23.896C146.145 23.32 146.433 23.032 147.009 23.032H148.281ZM155.352 23.2V36.448C155.352 36.896 155.48 37.24 155.736 37.48C155.992 37.704 156.36 37.816 156.84 37.816H157.872L158.208 39.856C158.032 39.936 157.784 40.008 157.464 40.072C157.16 40.136 156.84 40.176 156.504 40.192C156.184 40.224 155.904 40.24 155.664 40.24C154.688 40.24 153.912 39.976 153.336 39.448C152.76 38.92 152.472 38.16 152.472 37.168V23.2H155.352ZM165.275 27.928C167.179 27.928 168.547 28.264 169.379 28.936C170.211 29.592 170.635 30.568 170.651 31.864C170.667 32.936 170.411 33.752 169.883 34.312C169.371 34.856 168.515 35.128 167.315 35.128H160.595V33.328H166.523C167.067 33.328 167.411 33.184 167.555 32.896C167.715 32.608 167.795 32.256 167.795 31.84C167.779 31.184 167.587 30.728 167.219 30.472C166.867 30.216 166.259 30.088 165.395 30.088C164.643 30.088 164.059 30.192 163.643 30.4C163.227 30.608 162.931 30.984 162.755 31.528C162.595 32.072 162.515 32.856 162.515 33.88C162.515 34.968 162.619 35.808 162.827 36.4C163.035 36.992 163.379 37.4 163.859 37.624C164.339 37.832 164.979 37.936 165.779 37.936C166.371 37.936 167.051 37.912 167.819 37.864C168.603 37.816 169.355 37.752 170.075 37.672L170.363 39.52C169.931 39.696 169.435 39.84 168.875 39.952C168.315 40.064 167.731 40.144 167.123 40.192C166.531 40.256 165.971 40.288 165.443 40.288C164.003 40.288 162.843 40.08 161.963 39.664C161.099 39.232 160.467 38.56 160.067 37.648C159.683 36.736 159.491 35.56 159.491 34.12C159.491 32.568 159.683 31.344 160.067 30.448C160.467 29.536 161.091 28.888 161.939 28.504C162.803 28.12 163.915 27.928 165.275 27.928Z" fill="white"/>
<defs>
<linearGradient id="paint0_linear_2271_494" x1="80.8779" y1="65.6269" x2="87.0391" y2="21.8948" gradientUnits="userSpaceOnUse">
<stop stop-color="white"/>
<stop offset="0.182692" stop-color="#8C8C8C"/>
<stop offset="0.278846" stop-color="#FF9584"/>
<stop offset="0.399038" stop-color="#DFED43"/>
<stop offset="0.495192" stop-color="#A0F885"/>
<stop offset="0.58953" stop-color="#74BFF7"/>
<stop offset="0.6706" stop-color="#7C72DB"/>
<stop offset="0.75167" stop-color="#8681A8"/>
<stop offset="1" stop-color="white"/>
</linearGradient>
</defs>
</svg>
