<svg width="45" height="45" viewBox="0 0 45 45" fill="none" xmlns="http://www.w3.org/2000/svg">
<g clip-path="url(#clip0_2080_641)">
<path d="M7.26767 27.2575C7.44794 27.7076 12.1348 36.8 22.5001 36.8C26.2285 36.8 29.2223 35.6235 31.5359 34.1002C35.654 31.3887 37.6171 27.5781 37.7325 27.3475C37.8226 27.0775 37.8226 26.8074 37.7325 26.5373C37.7325 26.5373 37.0114 25.187 35.9298 26.8974C34.8482 28.6079 30.612 34.9995 22.5001 34.9995C14.3881 34.9995 10.0618 28.6079 9.07032 26.8974C8.07887 25.187 7.26767 26.4473 7.26767 26.4473C7.17754 26.7174 7.17754 26.9874 7.26767 27.2575Z" fill="#9277C5"/>
</g>
<defs>
<clipPath id="clip0_2080_641">
<rect width="45" height="45" fill="white"/>
</clipPath>
</defs>
</svg>
