<svg width="45" height="45" viewBox="0 0 45 45" fill="none" xmlns="http://www.w3.org/2000/svg">
<path d="M22.5 39C11.9993 39 7.2511 30.2773 7.06848 29.8455C6.97717 29.5864 6.97717 29.3273 7.06848 29.0682C7.2511 28.7227 11.9993 20 22.5 20C33.0007 20 37.7489 28.7227 37.9315 29.1545C38.0228 29.4136 38.0228 29.6727 37.9315 29.9318C37.7489 30.2773 33.0007 39 22.5 39ZM8.8947 29.5C9.89912 31.1409 14.282 37.2727 22.5 37.2727C30.718 37.2727 35.0096 31.1409 36.1053 29.5C35.1009 27.8591 30.718 21.7273 22.5 21.7273C14.282 21.7273 9.99043 27.8591 8.8947 29.5Z" fill="#9277C5"/>
<path d="M22.5 37.6004C18 37.6004 14.4 34.0004 14.4 29.5004C14.4 25.0004 18 21.4004 22.5 21.4004C27 21.4004 30.6 25.0004 30.6 29.5004C30.6 34.0004 27 37.6004 22.5 37.6004ZM22.5 23.2004C18.99 23.2004 16.2 25.9904 16.2 29.5004C16.2 33.0104 18.99 35.8004 22.5 35.8004C26.01 35.8004 28.8 33.0104 28.8 29.5004C28.8 25.9904 26.01 23.2004 22.5 23.2004Z" fill="#9277C5"/>
<path d="M22.5 34C19.98 34 18 32.02 18 29.5C18 28.96 18.36 28.6 18.9 28.6C19.44 28.6 19.8 28.96 19.8 29.5C19.8 31.03 20.97 32.2 22.5 32.2C24.03 32.2 25.2 31.03 25.2 29.5C25.2 27.97 24.03 26.8 22.5 26.8C21.96 26.8 21.6 26.44 21.6 25.9C21.6 25.36 21.96 25 22.5 25C25.02 25 27 26.98 27 29.5C27 32.02 25.02 34 22.5 34Z" fill="#9277C5"/>
</svg>
