<svg width="166" height="46" viewBox="0 0 166 46" fill="none" xmlns="http://www.w3.org/2000/svg">
<path d="M2.07166 37.7022L10.6727 5.70215C11.2597 3.51808 13.2397 2 15.5013 2H159.156C162.352 2 164.727 4.95611 164.039 8.07649L156.984 40.0765C156.479 42.3681 154.448 44 152.101 44H6.90028C3.61103 44 1.21787 40.8787 2.07166 37.7022Z" fill="url(#paint0_linear_2890_10757)" stroke="url(#paint1_linear_2890_10757)" stroke-width="3"/>
<path d="M59.1819 17.58V30H56.9319V17.58H59.1819ZM65.5412 20.946C66.5372 20.946 67.3232 21.042 67.8992 21.234C68.4872 21.414 68.9072 21.714 69.1592 22.134C69.4112 22.542 69.5372 23.082 69.5372 23.754C69.5372 24.402 69.4112 24.936 69.1592 25.356C68.9072 25.764 68.4872 26.064 67.8992 26.256C67.3112 26.448 66.5192 26.544 65.5232 26.544C64.5272 26.544 63.7352 26.448 63.1472 26.256C62.5712 26.064 62.1512 25.764 61.8872 25.356C61.6352 24.948 61.5092 24.414 61.5092 23.754C61.5092 23.082 61.6352 22.542 61.8872 22.134C62.1512 21.714 62.5772 21.414 63.1652 21.234C63.7532 21.042 64.5452 20.946 65.5412 20.946ZM65.5232 22.368C64.7672 22.368 64.2452 22.47 63.9572 22.674C63.6692 22.878 63.5252 23.238 63.5252 23.754C63.5252 24.246 63.6692 24.6 63.9572 24.816C64.2452 25.02 64.7672 25.122 65.5232 25.122C66.2792 25.122 66.7952 25.02 67.0712 24.816C67.3592 24.6 67.5032 24.246 67.5032 23.754C67.5032 23.238 67.3592 22.878 67.0712 22.674C66.7952 22.47 66.2792 22.368 65.5232 22.368ZM70.5632 21.162L70.4372 22.17L68.1332 22.422L67.4852 21.162H70.5632ZM62.9492 26.004L64.0652 26.166C63.8852 26.31 63.7592 26.496 63.6872 26.724C63.6272 26.94 63.6452 27.15 63.7412 27.354C63.8492 27.546 64.0772 27.666 64.4252 27.714L67.7012 28.146C68.5892 28.254 69.2132 28.518 69.5732 28.938C69.9332 29.346 70.1132 29.94 70.1132 30.72C70.1132 31.452 69.9692 32.022 69.6812 32.43C69.3932 32.838 68.9192 33.12 68.2592 33.276C67.6112 33.444 66.7352 33.528 65.6312 33.528C64.7552 33.528 64.0292 33.48 63.4532 33.384C62.8772 33.3 62.4152 33.15 62.0672 32.934C61.7312 32.73 61.4912 32.46 61.3472 32.124C61.2032 31.8 61.1312 31.392 61.1312 30.9C61.1312 30.516 61.1912 30.192 61.3112 29.928C61.4432 29.664 61.6532 29.43 61.9412 29.226C62.2292 29.01 62.6192 28.812 63.1112 28.632L64.3352 28.11L65.1812 28.416L64.3892 28.974C64.1132 29.178 63.8852 29.364 63.7052 29.532C63.5372 29.688 63.4112 29.844 63.3272 30C63.2552 30.168 63.2192 30.378 63.2192 30.63C63.2192 30.966 63.2852 31.224 63.4172 31.404C63.5612 31.584 63.8072 31.704 64.1552 31.764C64.5032 31.836 64.9892 31.872 65.6132 31.872C66.2492 31.872 66.7412 31.836 67.0892 31.764C67.4372 31.704 67.6772 31.584 67.8092 31.404C67.9532 31.236 68.0252 30.99 68.0252 30.666C68.0252 30.402 67.9832 30.204 67.8992 30.072C67.8152 29.952 67.6652 29.856 67.4492 29.784C67.2332 29.712 66.9332 29.652 66.5492 29.604L63.5972 29.244C63.1772 29.196 62.8412 29.076 62.5892 28.884C62.3492 28.68 62.1812 28.44 62.0852 28.164C61.9892 27.876 61.9592 27.594 61.9952 27.318C62.0432 27.03 62.1452 26.766 62.3012 26.526C62.4692 26.286 62.6852 26.112 62.9492 26.004ZM77.8944 20.946C79.5384 20.946 80.3604 21.756 80.3604 23.376V30H78.1824V24.042C78.1824 23.562 78.0984 23.232 77.9304 23.052C77.7624 22.872 77.4804 22.782 77.0844 22.782C76.6404 22.782 76.1844 22.884 75.7164 23.088C75.2484 23.28 74.6844 23.562 74.0244 23.934L73.9344 22.62C74.5824 22.08 75.2424 21.666 75.9144 21.378C76.5864 21.09 77.2464 20.946 77.8944 20.946ZM73.8624 21.162L74.0784 22.89L74.2584 23.142V30H72.0804V21.162H73.8624ZM86.7464 20.946C87.8264 20.946 88.6844 21.096 89.3204 21.396C89.9684 21.696 90.4304 22.188 90.7064 22.872C90.9944 23.556 91.1384 24.462 91.1384 25.59C91.1384 26.718 90.9944 27.624 90.7064 28.308C90.4304 28.98 89.9684 29.472 89.3204 29.784C88.6844 30.084 87.8264 30.234 86.7464 30.234C85.6904 30.234 84.8384 30.084 84.1904 29.784C83.5544 29.472 83.0924 28.98 82.8044 28.308C82.5164 27.624 82.3724 26.718 82.3724 25.59C82.3724 24.462 82.5164 23.556 82.8044 22.872C83.0924 22.188 83.5544 21.696 84.1904 21.396C84.8384 21.096 85.6904 20.946 86.7464 20.946ZM86.7464 22.602C86.2184 22.602 85.7984 22.692 85.4864 22.872C85.1864 23.04 84.9704 23.34 84.8384 23.772C84.7064 24.204 84.6404 24.81 84.6404 25.59C84.6404 26.37 84.7064 26.976 84.8384 27.408C84.9704 27.84 85.1864 28.14 85.4864 28.308C85.7984 28.476 86.2184 28.56 86.7464 28.56C87.2864 28.56 87.7124 28.476 88.0244 28.308C88.3364 28.14 88.5524 27.84 88.6724 27.408C88.8044 26.976 88.8704 26.37 88.8704 25.59C88.8704 24.81 88.8044 24.204 88.6724 23.772C88.5524 23.34 88.3364 23.04 88.0244 22.872C87.7124 22.692 87.2864 22.602 86.7464 22.602ZM94.8838 21.162L95.1718 22.89L95.3698 23.142V30H93.1918V21.162H94.8838ZM99.2038 20.946L98.9878 22.962H98.3578C97.8898 22.962 97.4158 23.04 96.9358 23.196C96.4558 23.352 95.8558 23.586 95.1358 23.898L94.9918 22.62C95.6158 22.092 96.2518 21.684 96.8998 21.396C97.5478 21.096 98.1718 20.946 98.7718 20.946H99.2038ZM104.446 20.946C105.874 20.946 106.9 21.198 107.524 21.702C108.148 22.194 108.466 22.926 108.478 23.898C108.49 24.702 108.298 25.314 107.902 25.734C107.518 26.142 106.876 26.346 105.976 26.346H100.936V24.996H105.382C105.79 24.996 106.048 24.888 106.156 24.672C106.276 24.456 106.336 24.192 106.336 23.88C106.324 23.388 106.18 23.046 105.904 22.854C105.64 22.662 105.184 22.566 104.536 22.566C103.972 22.566 103.534 22.644 103.222 22.8C102.91 22.956 102.688 23.238 102.556 23.646C102.436 24.054 102.376 24.642 102.376 25.41C102.376 26.226 102.454 26.856 102.61 27.3C102.766 27.744 103.024 28.05 103.384 28.218C103.744 28.374 104.224 28.452 104.824 28.452C105.268 28.452 105.778 28.434 106.354 28.398C106.942 28.362 107.506 28.314 108.046 28.254L108.262 29.64C107.938 29.772 107.566 29.88 107.146 29.964C106.726 30.048 106.288 30.108 105.832 30.144C105.388 30.192 104.968 30.216 104.572 30.216C103.492 30.216 102.622 30.06 101.962 29.748C101.314 29.424 100.84 28.92 100.54 28.236C100.252 27.552 100.108 26.67 100.108 25.59C100.108 24.426 100.252 23.508 100.54 22.836C100.84 22.152 101.308 21.666 101.944 21.378C102.592 21.09 103.426 20.946 104.446 20.946Z" fill="white"/>
<defs>
<linearGradient id="paint0_linear_2890_10757" x1="0.378906" y1="23" x2="165.379" y2="23" gradientUnits="userSpaceOnUse">
<stop stop-color="#121218"/>
<stop offset="1" stop-color="#474350"/>
</linearGradient>
<linearGradient id="paint1_linear_2890_10757" x1="60.8369" y1="48.0746" x2="65.1126" y2="16.3543" gradientUnits="userSpaceOnUse">
<stop stop-color="white"/>
<stop offset="0.182692" stop-color="#8C8C8C"/>
<stop offset="0.278846" stop-color="#FF9584"/>
<stop offset="0.399038" stop-color="#DFED43"/>
<stop offset="0.495192" stop-color="#A0F885"/>
<stop offset="0.58953" stop-color="#74BFF7"/>
<stop offset="0.6706" stop-color="#7C72DB"/>
<stop offset="0.75167" stop-color="#8681A8"/>
<stop offset="1" stop-color="white"/>
</linearGradient>
</defs>
</svg>
