<svg width="139" height="72" viewBox="0 0 139 72" fill="none" xmlns="http://www.w3.org/2000/svg">
<g clip-path="url(#clip0_2021_331)">
<path d="M9.54 16.4598C11.8 16.4598 14.11 16.4798 16.45 16.5198C18.84 16.5198 21.16 16.5798 23.43 16.7098C25.73 16.7998 27.87 16.9398 29.83 17.1598L29.32 24.1998H13.32C12.17 24.1998 11.29 24.4798 10.7 25.0298C10.1 25.5798 9.8 26.3998 9.8 27.4598V60.7998H0V25.4798C0 22.7498 0.87 20.5698 2.62 18.9498C4.37 17.2898 6.67 16.4498 9.53 16.4498L9.54 16.4598ZM1.15 35.1498H26.94V42.0598H1.15V35.1498ZM44.65 16.0098V50.6998C44.65 51.7698 44.97 52.5798 45.61 53.1298C46.25 53.6398 47.19 53.8998 48.43 53.8998H50.99L52.08 60.2998C51.57 60.5598 50.84 60.7698 49.9 60.9398C48.96 61.1498 48 61.2998 47.02 61.3898C46.04 61.5198 45.21 61.5798 44.52 61.5798C41.66 61.5798 39.4 60.8298 37.74 59.3398C36.08 57.8498 35.24 55.7598 35.24 53.0698V16.0098H44.65ZM65.46 29.1898V49.9898C65.46 51.3098 65.74 52.2498 66.29 52.8098C66.89 53.3598 67.83 53.6398 69.11 53.6398C70.39 53.6398 71.73 53.4098 73.01 52.9398C74.33 52.4298 75.95 51.6398 77.87 50.5698L78.64 55.7498C76.34 57.7598 74.07 59.2498 71.86 60.2298C69.64 61.2098 67.36 61.6998 65.01 61.6998C58.99 61.6998 55.99 58.7598 55.99 52.8698V29.1898H65.46ZM86.39 29.1898V60.8098H78.9L77.81 54.5998L76.91 53.6998V29.1898H86.38H86.39ZM125.22 29.1898L116.07 44.6098L125.93 60.7998H116.33L106.99 44.6098L115.63 29.1898H125.23H125.22ZM101.22 29.1898L109.86 44.6098L100.58 60.7998H90.92L100.78 44.6098L91.63 29.1898H101.23H101.22ZM113.44 41.5398V47.4298H103.46V41.5398H113.44Z" fill="white"/>
<path d="M90.8603 49.23C74.8603 59.14 49.3203 66.68 49.3203 66.68C72.4003 64.05 88.0903 60.49 98.5503 53.73C109.01 46.98 120.09 35.72 130.09 17.71C115.47 32.34 106.86 39.32 90.8603 49.23Z" fill="#121218" stroke="url(#paint0_linear_2021_331)" stroke-width="4" stroke-miterlimit="16"/>
<path d="M70.4602 9.34953C78.7702 5.42953 93.6102 1.51953 93.6102 1.51953C81.4002 3.12953 71.7102 5.35953 66.2902 8.01953C60.8602 10.6795 55.2002 14.9095 50.2402 21.4595C57.7202 15.9495 62.1602 13.2695 70.4702 9.34953H70.4602Z" stroke="url(#paint1_linear_2021_331)" stroke-miterlimit="16"/>
</g>
<defs>
<linearGradient id="paint0_linear_2021_331" x1="85.3103" y1="69.84" x2="81.8303" y2="27.34" gradientUnits="userSpaceOnUse">
<stop stop-color="white"/>
<stop offset="0.18" stop-color="#8C8C8C"/>
<stop offset="0.28" stop-color="#FF9584"/>
<stop offset="0.4" stop-color="#DFED43"/>
<stop offset="0.5" stop-color="#A0F885"/>
<stop offset="0.59" stop-color="#74BFF7"/>
<stop offset="0.67" stop-color="#7C72DB"/>
<stop offset="0.75" stop-color="#8681A8"/>
<stop offset="1" stop-color="white"/>
</linearGradient>
<linearGradient id="paint1_linear_2021_331" x1="73.4102" y1="1.61953" x2="75.0402" y2="16.5395" gradientUnits="userSpaceOnUse">
<stop stop-color="white"/>
<stop offset="0.18" stop-color="#8C8C8C"/>
<stop offset="0.28" stop-color="#FF9584"/>
<stop offset="0.4" stop-color="#DFED43"/>
<stop offset="0.5" stop-color="#A0F885"/>
<stop offset="0.59" stop-color="#74BFF7"/>
<stop offset="0.67" stop-color="#7C72DB"/>
<stop offset="0.75" stop-color="#8681A8"/>
<stop offset="1" stop-color="white"/>
</linearGradient>
<clipPath id="clip0_2021_331">
<rect width="138.78" height="71.26" fill="white"/>
</clipPath>
</defs>
</svg>
