<svg width="264" height="62" viewBox="0 0 264 62" fill="none" xmlns="http://www.w3.org/2000/svg">
<path d="M3.00158 53.5236L17.8364 5.52361C18.4838 3.42866 20.4207 2 22.6134 2H256.574C259.834 2 262.222 5.06895 261.421 8.22866L249.253 56.2287C248.69 58.4467 246.694 60 244.406 60H7.77864C4.412 60 2.00749 56.7401 3.00158 53.5236Z" fill="url(#paint0_linear_2870_17592)" stroke="url(#paint1_linear_2870_17592)" stroke-width="4"/>
<path d="M72.4761 24.44V39.872C72.4761 40.624 72.1081 41 71.3721 41H69.3321C68.9961 41 68.7401 40.928 68.5641 40.784C68.3881 40.624 68.2281 40.392 68.0841 40.088L63.0681 30.104C62.8921 29.752 62.7081 29.368 62.5161 28.952C62.3401 28.52 62.1961 28.112 62.0841 27.728H61.7721C61.8041 28.128 61.8281 28.536 61.8441 28.952C61.8761 29.352 61.8921 29.752 61.8921 30.152V41H59.0121V25.568C59.0121 24.816 59.3801 24.44 60.1161 24.44H62.1081C62.4441 24.44 62.7001 24.52 62.8761 24.68C63.0521 24.824 63.2121 25.048 63.3561 25.352L68.2281 35.072C68.4201 35.424 68.6121 35.824 68.8041 36.272C69.0121 36.704 69.2041 37.144 69.3801 37.592H69.7401C69.7081 37.128 69.6761 36.68 69.6441 36.248C69.6281 35.8 69.6201 35.36 69.6201 34.928V24.44H72.4761ZM81.2083 28.928C83.1123 28.928 84.4803 29.264 85.3123 29.936C86.1443 30.592 86.5683 31.568 86.5843 32.864C86.6003 33.936 86.3443 34.752 85.8163 35.312C85.3043 35.856 84.4483 36.128 83.2483 36.128H76.5283V34.328H82.4563C83.0003 34.328 83.3443 34.184 83.4883 33.896C83.6483 33.608 83.7283 33.256 83.7283 32.84C83.7123 32.184 83.5203 31.728 83.1523 31.472C82.8003 31.216 82.1923 31.088 81.3283 31.088C80.5763 31.088 79.9923 31.192 79.5763 31.4C79.1603 31.608 78.8643 31.984 78.6883 32.528C78.5283 33.072 78.4483 33.856 78.4483 34.88C78.4483 35.968 78.5523 36.808 78.7603 37.4C78.9683 37.992 79.3123 38.4 79.7923 38.624C80.2723 38.832 80.9123 38.936 81.7123 38.936C82.3043 38.936 82.9843 38.912 83.7523 38.864C84.5363 38.816 85.2883 38.752 86.0083 38.672L86.2963 40.52C85.8643 40.696 85.3683 40.84 84.8083 40.952C84.2483 41.064 83.6643 41.144 83.0563 41.192C82.4643 41.256 81.9043 41.288 81.3763 41.288C79.9363 41.288 78.7763 41.08 77.8963 40.664C77.0323 40.232 76.4003 39.56 76.0003 38.648C75.6163 37.736 75.4243 36.56 75.4243 35.12C75.4243 33.568 75.6163 32.344 76.0003 31.448C76.4003 30.536 77.0243 29.888 77.8723 29.504C78.7363 29.12 79.8483 28.928 81.2083 28.928ZM100.091 29.216L96.5871 34.952L100.379 41H97.3791L93.7311 34.952L97.0911 29.216H100.091ZM91.1871 29.216L94.5471 34.952L90.9471 41H87.8991L91.6911 34.952L88.1871 29.216H91.1871ZM95.7711 33.92V35.864H92.5551V33.92H95.7711ZM106.278 25.856V37.448C106.278 37.944 106.382 38.296 106.59 38.504C106.814 38.712 107.19 38.816 107.718 38.816H109.35L109.662 40.856C109.39 40.936 109.062 41.008 108.678 41.072C108.294 41.136 107.918 41.176 107.55 41.192C107.182 41.224 106.87 41.24 106.614 41.24C105.59 41.24 104.79 40.968 104.214 40.424C103.654 39.864 103.374 39.064 103.374 38.024V25.856H106.278ZM109.782 29.216V31.232H101.286V29.336L103.59 29.216H109.782ZM120.155 29.216V41H117.275V29.216H120.155ZM119.363 24.104C119.939 24.104 120.227 24.392 120.227 24.968V26.312C120.227 26.888 119.939 27.176 119.363 27.176H118.067C117.491 27.176 117.203 26.888 117.203 26.312V24.968C117.203 24.392 117.491 24.104 118.067 24.104H119.363ZM131.259 28.928C133.451 28.928 134.547 30.008 134.547 32.168V41H131.643V33.056C131.643 32.416 131.531 31.976 131.307 31.736C131.083 31.496 130.707 31.376 130.179 31.376C129.587 31.376 128.979 31.512 128.355 31.784C127.731 32.04 126.979 32.416 126.099 32.912L125.979 31.16C126.843 30.44 127.723 29.888 128.619 29.504C129.515 29.12 130.395 28.928 131.259 28.928ZM125.883 29.216L126.171 31.52L126.411 31.856V41H123.507V29.216H125.883ZM148.072 28.928C148.472 28.928 148.92 28.944 149.416 28.976C149.912 29.008 150.424 29.064 150.952 29.144C151.48 29.208 151.984 29.296 152.464 29.408C152.96 29.52 153.4 29.648 153.784 29.792L151.432 31.592C151.096 31.48 150.728 31.384 150.328 31.304C149.928 31.224 149.528 31.176 149.128 31.16C148.744 31.128 148.4 31.12 148.096 31.136C147.44 31.152 146.92 31.28 146.536 31.52C146.152 31.744 145.872 32.152 145.696 32.744C145.536 33.336 145.456 34.176 145.456 35.264C145.456 36.544 145.608 37.464 145.912 38.024C146.232 38.584 146.832 38.864 147.712 38.864C148.368 38.864 148.952 38.736 149.464 38.48C149.976 38.224 150.552 37.896 151.192 37.496L151.48 38.96C151.064 39.376 150.6 39.768 150.088 40.136C149.576 40.488 149.024 40.776 148.432 41C147.856 41.208 147.256 41.312 146.632 41.312C145.176 41.312 144.12 40.808 143.464 39.8C142.808 38.792 142.48 37.248 142.48 35.168C142.48 34.176 142.56 33.296 142.72 32.528C142.896 31.76 143.192 31.112 143.608 30.584C144.024 30.04 144.592 29.632 145.312 29.36C146.032 29.072 146.952 28.928 148.072 28.928ZM150.88 29.672L153.784 29.792V45.68H150.88L150.856 41.936C150.856 41.392 150.88 40.888 150.928 40.424C150.976 39.96 151.056 39.504 151.168 39.056L150.88 38.72V29.672ZM159.831 29.216V37.184C159.815 37.776 159.927 38.2 160.167 38.456C160.423 38.712 160.831 38.84 161.391 38.84C161.951 38.84 162.511 38.72 163.071 38.48C163.631 38.24 164.311 37.88 165.111 37.4L165.399 39.128C164.503 39.848 163.639 40.392 162.807 40.76C161.975 41.128 161.111 41.312 160.215 41.312C158.023 41.312 156.927 40.232 156.927 38.072V29.216H159.831ZM167.727 29.216V41H165.423L165.111 38.72L164.823 38.384V29.216H167.727ZM176.247 28.928C178.151 28.928 179.519 29.264 180.351 29.936C181.183 30.592 181.607 31.568 181.623 32.864C181.639 33.936 181.383 34.752 180.855 35.312C180.343 35.856 179.487 36.128 178.287 36.128H171.567V34.328H177.495C178.039 34.328 178.383 34.184 178.527 33.896C178.687 33.608 178.767 33.256 178.767 32.84C178.751 32.184 178.559 31.728 178.191 31.472C177.839 31.216 177.231 31.088 176.367 31.088C175.615 31.088 175.031 31.192 174.615 31.4C174.199 31.608 173.903 31.984 173.727 32.528C173.567 33.072 173.487 33.856 173.487 34.88C173.487 35.968 173.591 36.808 173.799 37.4C174.007 37.992 174.351 38.4 174.831 38.624C175.311 38.832 175.951 38.936 176.751 38.936C177.343 38.936 178.023 38.912 178.791 38.864C179.575 38.816 180.327 38.752 181.047 38.672L181.335 40.52C180.903 40.696 180.407 40.84 179.847 40.952C179.287 41.064 178.703 41.144 178.095 41.192C177.503 41.256 176.943 41.288 176.415 41.288C174.975 41.288 173.815 41.08 172.935 40.664C172.071 40.232 171.439 39.56 171.039 38.648C170.655 37.736 170.463 36.56 170.463 35.12C170.463 33.568 170.655 32.344 171.039 31.448C171.439 30.536 172.063 29.888 172.911 29.504C173.775 29.12 174.887 28.928 176.247 28.928ZM187.066 29.216V37.184C187.05 37.776 187.162 38.2 187.402 38.456C187.658 38.712 188.066 38.84 188.626 38.84C189.186 38.84 189.746 38.72 190.306 38.48C190.866 38.24 191.546 37.88 192.346 37.4L192.634 39.128C191.738 39.848 190.874 40.392 190.042 40.76C189.21 41.128 188.346 41.312 187.45 41.312C185.258 41.312 184.162 40.232 184.162 38.072V29.216H187.066ZM194.962 29.216V41H192.658L192.346 38.72L192.058 38.384V29.216H194.962ZM203.482 28.928C205.386 28.928 206.754 29.264 207.586 29.936C208.418 30.592 208.842 31.568 208.858 32.864C208.874 33.936 208.618 34.752 208.09 35.312C207.578 35.856 206.722 36.128 205.522 36.128H198.802V34.328H204.73C205.274 34.328 205.618 34.184 205.762 33.896C205.922 33.608 206.002 33.256 206.002 32.84C205.986 32.184 205.794 31.728 205.426 31.472C205.074 31.216 204.466 31.088 203.602 31.088C202.85 31.088 202.266 31.192 201.85 31.4C201.434 31.608 201.138 31.984 200.962 32.528C200.802 33.072 200.722 33.856 200.722 34.88C200.722 35.968 200.826 36.808 201.034 37.4C201.242 37.992 201.586 38.4 202.066 38.624C202.546 38.832 203.186 38.936 203.986 38.936C204.578 38.936 205.258 38.912 206.026 38.864C206.81 38.816 207.562 38.752 208.282 38.672L208.57 40.52C208.138 40.696 207.642 40.84 207.082 40.952C206.522 41.064 205.938 41.144 205.33 41.192C204.738 41.256 204.178 41.288 203.65 41.288C202.21 41.288 201.05 41.08 200.17 40.664C199.306 40.232 198.674 39.56 198.274 38.648C197.89 37.736 197.698 36.56 197.698 35.12C197.698 33.568 197.89 32.344 198.274 31.448C198.674 30.536 199.298 29.888 200.146 29.504C201.01 29.12 202.122 28.928 203.482 28.928Z" fill="white"/>
<defs>
<linearGradient id="paint0_linear_2870_17592" x1="1" y1="31" x2="263" y2="31" gradientUnits="userSpaceOnUse">
<stop stop-color="#121218"/>
<stop offset="1" stop-color="#474350"/>
</linearGradient>
<linearGradient id="paint1_linear_2870_17592" x1="97" y1="65.6269" x2="102.157" y2="21.6313" gradientUnits="userSpaceOnUse">
<stop stop-color="white"/>
<stop offset="0.182692" stop-color="#8C8C8C"/>
<stop offset="0.278846" stop-color="#FF9584"/>
<stop offset="0.399038" stop-color="#DFED43"/>
<stop offset="0.495192" stop-color="#A0F885"/>
<stop offset="0.58953" stop-color="#74BFF7"/>
<stop offset="0.6706" stop-color="#7C72DB"/>
<stop offset="0.75167" stop-color="#8681A8"/>
<stop offset="1" stop-color="white"/>
</linearGradient>
</defs>
</svg>
