<svg width="339" height="62" viewBox="0 0 339 62" fill="none" xmlns="http://www.w3.org/2000/svg">
<path d="M2.73186 53.1482L21.8699 5.14822C22.6278 3.2472 24.4677 2 26.5143 2H331.104C334.505 2 336.914 5.32181 335.857 8.5542L320.159 56.5542C319.486 58.6097 317.569 60 315.406 60H7.37631C3.84137 60 1.42268 56.4318 2.73186 53.1482Z" fill="#121218" stroke="url(#paint0_linear_2437_6460)" stroke-width="4"/>
<path d="M114.94 23.224C116.396 23.224 117.54 23.384 118.372 23.704C119.204 24.008 119.796 24.544 120.148 25.312C120.516 26.064 120.7 27.136 120.7 28.528C120.7 29.92 120.524 31 120.172 31.768C119.836 32.536 119.268 33.072 118.468 33.376C117.684 33.68 116.636 33.832 115.324 33.832C114.604 33.832 113.908 33.808 113.236 33.76C112.58 33.712 111.964 33.648 111.388 33.568C110.828 33.488 110.348 33.408 109.948 33.328C109.548 33.232 109.268 33.152 109.108 33.088L109.18 31.48C110.092 31.48 111.028 31.48 111.988 31.48C112.964 31.48 113.932 31.48 114.892 31.48C115.596 31.464 116.148 31.376 116.548 31.216C116.964 31.056 117.252 30.768 117.412 30.352C117.588 29.92 117.676 29.312 117.676 28.528C117.676 27.744 117.588 27.144 117.412 26.728C117.252 26.296 116.964 26 116.548 25.84C116.148 25.664 115.596 25.576 114.892 25.576C113.484 25.576 112.276 25.584 111.268 25.6C110.26 25.616 109.572 25.64 109.204 25.672L108.868 23.44C109.508 23.376 110.108 23.328 110.668 23.296C111.244 23.264 111.86 23.248 112.516 23.248C113.188 23.232 113.996 23.224 114.94 23.224ZM111.868 23.44V40H108.868V23.44H111.868ZM126.11 23.2V36.448C126.11 36.896 126.238 37.24 126.494 37.48C126.75 37.704 127.118 37.816 127.598 37.816H128.63L128.966 39.856C128.79 39.936 128.542 40.008 128.222 40.072C127.918 40.136 127.598 40.176 127.262 40.192C126.942 40.224 126.662 40.24 126.422 40.24C125.446 40.24 124.67 39.976 124.094 39.448C123.518 38.92 123.23 38.16 123.23 37.168V23.2H126.11ZM136.705 27.928C137.649 27.928 138.441 28.056 139.081 28.312C139.737 28.552 140.233 28.968 140.569 29.56C140.905 30.152 141.073 30.968 141.073 32.008V40H138.769L138.361 37.456L138.145 37.12V31.984C138.145 31.36 138.001 30.912 137.713 30.64C137.425 30.352 136.873 30.208 136.057 30.208C135.449 30.208 134.681 30.232 133.753 30.28C132.841 30.328 131.921 30.392 130.993 30.472L130.729 28.48C131.289 28.368 131.921 28.272 132.625 28.192C133.329 28.112 134.041 28.048 134.761 28C135.481 27.952 136.129 27.928 136.705 27.928ZM139.825 32.752L139.801 34.552H134.401C133.921 34.568 133.577 34.696 133.369 34.936C133.161 35.176 133.057 35.504 133.057 35.92V36.568C133.057 37.048 133.185 37.416 133.441 37.672C133.697 37.912 134.097 38.032 134.641 38.032C135.073 38.032 135.553 37.944 136.081 37.768C136.609 37.592 137.129 37.336 137.641 37C138.169 36.664 138.641 36.264 139.057 35.8V37.312C138.897 37.552 138.665 37.84 138.361 38.176C138.057 38.496 137.681 38.816 137.233 39.136C136.801 39.456 136.297 39.72 135.721 39.928C135.161 40.136 134.537 40.24 133.849 40.24C133.145 40.24 132.513 40.12 131.953 39.88C131.393 39.624 130.953 39.256 130.633 38.776C130.313 38.28 130.153 37.672 130.153 36.952V35.704C130.153 34.776 130.457 34.056 131.065 33.544C131.689 33.016 132.537 32.752 133.609 32.752H139.825ZM149.51 27.928C149.91 27.928 150.35 27.944 150.83 27.976C151.31 28.008 151.798 28.072 152.294 28.168C152.79 28.264 153.238 28.4 153.638 28.576L153.302 30.4C152.71 30.368 152.118 30.344 151.526 30.328C150.95 30.312 150.446 30.304 150.014 30.304C149.198 30.304 148.55 30.416 148.07 30.64C147.606 30.848 147.27 31.232 147.062 31.792C146.854 32.336 146.75 33.104 146.75 34.096C146.75 35.088 146.854 35.864 147.062 36.424C147.27 36.968 147.606 37.352 148.07 37.576C148.55 37.8 149.198 37.912 150.014 37.912C150.254 37.912 150.566 37.904 150.95 37.888C151.35 37.872 151.774 37.848 152.222 37.816C152.686 37.784 153.134 37.744 153.566 37.696L153.854 39.568C153.23 39.824 152.534 40.008 151.766 40.12C150.998 40.232 150.238 40.288 149.486 40.288C148.078 40.288 146.95 40.088 146.102 39.688C145.254 39.288 144.638 38.64 144.254 37.744C143.886 36.832 143.702 35.616 143.702 34.096C143.702 32.576 143.894 31.368 144.278 30.472C144.662 29.56 145.278 28.912 146.126 28.528C146.974 28.128 148.102 27.928 149.51 27.928ZM161.322 27.928C163.226 27.928 164.594 28.264 165.426 28.936C166.258 29.592 166.682 30.568 166.698 31.864C166.714 32.936 166.458 33.752 165.93 34.312C165.418 34.856 164.562 35.128 163.362 35.128H156.642V33.328H162.57C163.114 33.328 163.458 33.184 163.602 32.896C163.762 32.608 163.842 32.256 163.842 31.84C163.826 31.184 163.634 30.728 163.266 30.472C162.914 30.216 162.306 30.088 161.442 30.088C160.69 30.088 160.106 30.192 159.69 30.4C159.274 30.608 158.978 30.984 158.802 31.528C158.642 32.072 158.562 32.856 158.562 33.88C158.562 34.968 158.666 35.808 158.874 36.4C159.082 36.992 159.426 37.4 159.906 37.624C160.386 37.832 161.026 37.936 161.826 37.936C162.418 37.936 163.098 37.912 163.866 37.864C164.65 37.816 165.402 37.752 166.122 37.672L166.41 39.52C165.978 39.696 165.482 39.84 164.922 39.952C164.362 40.064 163.778 40.144 163.17 40.192C162.578 40.256 162.018 40.288 161.49 40.288C160.05 40.288 158.89 40.08 158.01 39.664C157.146 39.232 156.514 38.56 156.114 37.648C155.73 36.736 155.538 35.56 155.538 34.12C155.538 32.568 155.73 31.344 156.114 30.448C156.514 29.536 157.138 28.888 157.986 28.504C158.85 28.12 159.962 27.928 161.322 27.928ZM179.886 27.928C181.326 27.928 182.47 28.128 183.318 28.528C184.182 28.928 184.798 29.584 185.166 30.496C185.55 31.408 185.742 32.616 185.742 34.12C185.742 35.624 185.55 36.832 185.166 37.744C184.798 38.64 184.182 39.296 183.318 39.712C182.47 40.112 181.326 40.312 179.886 40.312C178.478 40.312 177.342 40.112 176.478 39.712C175.63 39.296 175.014 38.64 174.63 37.744C174.246 36.832 174.054 35.624 174.054 34.12C174.054 32.616 174.246 31.408 174.63 30.496C175.014 29.584 175.63 28.928 176.478 28.528C177.342 28.128 178.478 27.928 179.886 27.928ZM179.886 30.136C179.182 30.136 178.622 30.256 178.206 30.496C177.806 30.72 177.518 31.12 177.342 31.696C177.166 32.272 177.078 33.08 177.078 34.12C177.078 35.16 177.166 35.968 177.342 36.544C177.518 37.12 177.806 37.52 178.206 37.744C178.622 37.968 179.182 38.08 179.886 38.08C180.606 38.08 181.174 37.968 181.59 37.744C182.006 37.52 182.294 37.12 182.454 36.544C182.63 35.968 182.718 35.16 182.718 34.12C182.718 33.08 182.63 32.272 182.454 31.696C182.294 31.12 182.006 30.72 181.59 30.496C181.174 30.256 180.606 30.136 179.886 30.136ZM190.736 28.216L191.12 30.52L191.384 30.856V40H188.48V28.216H190.736ZM196.496 27.928L196.208 30.616H195.368C194.744 30.616 194.112 30.72 193.472 30.928C192.832 31.136 192.032 31.448 191.072 31.864L190.88 30.16C191.712 29.456 192.56 28.912 193.424 28.528C194.288 28.128 195.12 27.928 195.92 27.928H196.496ZM202.284 27.928C203.084 27.928 203.868 28.04 204.636 28.264C205.404 28.472 206.1 28.824 206.724 29.32L206.532 30.784C205.908 30.608 205.348 30.456 204.852 30.328C204.356 30.2 203.804 30.136 203.196 30.136C202.62 30.136 202.156 30.24 201.804 30.448C201.468 30.64 201.212 31.016 201.036 31.576C200.876 32.136 200.796 32.952 200.796 34.024C200.796 35.048 200.876 35.84 201.036 36.4C201.196 36.944 201.444 37.328 201.78 37.552C202.116 37.76 202.556 37.864 203.1 37.864C203.532 37.864 203.916 37.816 204.252 37.72C204.588 37.608 204.932 37.448 205.284 37.24C205.636 37.016 206.044 36.736 206.508 36.4L206.748 38.032C206.204 38.656 205.532 39.192 204.732 39.64C203.948 40.072 203.036 40.288 201.996 40.288C200.492 40.288 199.42 39.76 198.78 38.704C198.14 37.632 197.82 36.08 197.82 34.048C197.82 32.496 197.98 31.28 198.3 30.4C198.636 29.504 199.132 28.872 199.788 28.504C200.46 28.12 201.292 27.928 202.284 27.928ZM209.1 23.2V40H206.82L206.508 37.888L206.196 37.648V29.776L206.34 29.44C206.276 28.976 206.236 28.512 206.22 28.048C206.204 27.568 206.196 27.08 206.196 26.584V23.2H209.1ZM217.642 27.928C219.546 27.928 220.914 28.264 221.746 28.936C222.578 29.592 223.002 30.568 223.018 31.864C223.034 32.936 222.778 33.752 222.25 34.312C221.738 34.856 220.882 35.128 219.682 35.128H212.962V33.328H218.89C219.434 33.328 219.778 33.184 219.922 32.896C220.082 32.608 220.162 32.256 220.162 31.84C220.146 31.184 219.954 30.728 219.586 30.472C219.234 30.216 218.626 30.088 217.762 30.088C217.01 30.088 216.426 30.192 216.01 30.4C215.594 30.608 215.298 30.984 215.122 31.528C214.962 32.072 214.882 32.856 214.882 33.88C214.882 34.968 214.986 35.808 215.194 36.4C215.402 36.992 215.746 37.4 216.226 37.624C216.706 37.832 217.346 37.936 218.146 37.936C218.738 37.936 219.418 37.912 220.186 37.864C220.97 37.816 221.722 37.752 222.442 37.672L222.73 39.52C222.298 39.696 221.802 39.84 221.242 39.952C220.682 40.064 220.098 40.144 219.49 40.192C218.898 40.256 218.338 40.288 217.81 40.288C216.37 40.288 215.21 40.08 214.33 39.664C213.466 39.232 212.834 38.56 212.434 37.648C212.05 36.736 211.858 35.56 211.858 34.12C211.858 32.568 212.05 31.344 212.434 30.448C212.834 29.536 213.458 28.888 214.306 28.504C215.17 28.12 216.282 27.928 217.642 27.928ZM227.884 28.216L228.268 30.52L228.532 30.856V40H225.628V28.216H227.884ZM233.644 27.928L233.356 30.616H232.516C231.892 30.616 231.26 30.72 230.62 30.928C229.98 31.136 229.18 31.448 228.22 31.864L228.028 30.16C228.86 29.456 229.708 28.912 230.572 28.528C231.436 28.128 232.268 27.928 233.068 27.928H233.644Z" fill="white"/>
<defs>
<linearGradient id="paint0_linear_2437_6460" x1="123.847" y1="65.6269" x2="127.867" y2="21.392" gradientUnits="userSpaceOnUse">
<stop stop-color="white"/>
<stop offset="0.182692" stop-color="#8C8C8C"/>
<stop offset="0.278846" stop-color="#FF9584"/>
<stop offset="0.399038" stop-color="#DFED43"/>
<stop offset="0.495192" stop-color="#A0F885"/>
<stop offset="0.58953" stop-color="#74BFF7"/>
<stop offset="0.6706" stop-color="#7C72DB"/>
<stop offset="0.75167" stop-color="#8681A8"/>
<stop offset="1" stop-color="white"/>
</linearGradient>
</defs>
</svg>
