<svg width="339" height="62" viewBox="0 0 339 62" fill="none" xmlns="http://www.w3.org/2000/svg">
<path d="M2.73186 53.1482L21.8699 5.14822C22.6278 3.2472 24.4677 2 26.5143 2H331.104C334.505 2 336.914 5.32181 335.857 8.5542L320.159 56.5542C319.486 58.6097 317.569 60 315.406 60H7.37631C3.84137 60 1.42268 56.4318 2.73186 53.1482Z" fill="#121218" stroke="url(#paint0_linear_2271_491)" stroke-width="4"/>
<path d="M73.4362 23.224C74.8122 23.224 75.9242 23.368 76.7722 23.656C77.6362 23.944 78.2602 24.44 78.6442 25.144C79.0442 25.832 79.2442 26.808 79.2442 28.072C79.2442 28.904 79.1402 29.616 78.9322 30.208C78.7402 30.784 78.4122 31.248 77.9482 31.6C77.5002 31.936 76.8922 32.152 76.1242 32.248V32.368C76.3962 32.432 76.6762 32.56 76.9642 32.752C77.2682 32.928 77.5402 33.184 77.7802 33.52C78.0362 33.856 78.2282 34.288 78.3562 34.816L79.8682 40H76.7002L75.3322 34.888C75.1562 34.312 74.9162 33.912 74.6122 33.688C74.3082 33.448 73.8922 33.328 73.3642 33.328C72.3242 33.328 71.4362 33.328 70.7002 33.328C69.9642 33.312 69.3482 33.296 68.8522 33.28C68.3722 33.264 67.9482 33.256 67.5802 33.256L67.6522 30.976H73.3642C74.0842 30.96 74.6522 30.88 75.0682 30.736C75.4842 30.576 75.7802 30.304 75.9562 29.92C76.1322 29.52 76.2202 28.96 76.2202 28.24C76.2202 27.536 76.1322 26.992 75.9562 26.608C75.7802 26.224 75.4842 25.96 75.0682 25.816C74.6522 25.656 74.0842 25.576 73.3642 25.576C71.9562 25.576 70.7482 25.584 69.7402 25.6C68.7322 25.616 68.0442 25.632 67.6762 25.648L67.3402 23.44C67.9802 23.376 68.5802 23.328 69.1402 23.296C69.7162 23.264 70.3402 23.248 71.0122 23.248C71.6842 23.232 72.4922 23.224 73.4362 23.224ZM70.2922 23.44V40H67.3402V23.44H70.2922ZM87.4974 27.928C89.4014 27.928 90.7694 28.264 91.6014 28.936C92.4334 29.592 92.8574 30.568 92.8734 31.864C92.8894 32.936 92.6334 33.752 92.1054 34.312C91.5934 34.856 90.7374 35.128 89.5374 35.128H82.8174V33.328H88.7454C89.2894 33.328 89.6334 33.184 89.7774 32.896C89.9374 32.608 90.0174 32.256 90.0174 31.84C90.0014 31.184 89.8094 30.728 89.4414 30.472C89.0894 30.216 88.4814 30.088 87.6174 30.088C86.8654 30.088 86.2814 30.192 85.8654 30.4C85.4494 30.608 85.1534 30.984 84.9774 31.528C84.8174 32.072 84.7374 32.856 84.7374 33.88C84.7374 34.968 84.8414 35.808 85.0494 36.4C85.2574 36.992 85.6014 37.4 86.0814 37.624C86.5614 37.832 87.2014 37.936 88.0014 37.936C88.5934 37.936 89.2734 37.912 90.0414 37.864C90.8254 37.816 91.5774 37.752 92.2974 37.672L92.5854 39.52C92.1534 39.696 91.6574 39.84 91.0974 39.952C90.5374 40.064 89.9534 40.144 89.3454 40.192C88.7534 40.256 88.1934 40.288 87.6654 40.288C86.2254 40.288 85.0654 40.08 84.1854 39.664C83.3214 39.232 82.6894 38.56 82.2894 37.648C81.9054 36.736 81.7134 35.56 81.7134 34.12C81.7134 32.568 81.9054 31.344 82.2894 30.448C82.6894 29.536 83.3134 28.888 84.1614 28.504C85.0254 28.12 86.1374 27.928 87.4974 27.928ZM100.572 27.928C100.972 27.928 101.42 27.944 101.916 27.976C102.412 28.008 102.924 28.064 103.452 28.144C103.98 28.208 104.484 28.296 104.964 28.408C105.46 28.52 105.9 28.648 106.284 28.792L103.932 30.592C103.596 30.48 103.228 30.384 102.828 30.304C102.428 30.224 102.028 30.176 101.628 30.16C101.244 30.128 100.9 30.12 100.596 30.136C99.9396 30.152 99.4196 30.28 99.0356 30.52C98.6516 30.744 98.3716 31.152 98.1956 31.744C98.0356 32.336 97.9556 33.176 97.9556 34.264C97.9556 35.544 98.1076 36.464 98.4116 37.024C98.7316 37.584 99.3316 37.864 100.212 37.864C100.868 37.864 101.452 37.736 101.964 37.48C102.476 37.224 103.052 36.896 103.692 36.496L103.98 37.96C103.564 38.376 103.1 38.768 102.588 39.136C102.076 39.488 101.524 39.776 100.932 40C100.356 40.208 99.7556 40.312 99.1316 40.312C97.6756 40.312 96.6196 39.808 95.9636 38.8C95.3076 37.792 94.9796 36.248 94.9796 34.168C94.9796 33.176 95.0596 32.296 95.2196 31.528C95.3956 30.76 95.6916 30.112 96.1076 29.584C96.5236 29.04 97.0916 28.632 97.8116 28.36C98.5316 28.072 99.4516 27.928 100.572 27.928ZM103.38 28.672L106.284 28.792V44.68H103.38L103.356 40.936C103.356 40.392 103.38 39.888 103.428 39.424C103.476 38.96 103.556 38.504 103.668 38.056L103.38 37.72V28.672ZM112.331 28.216V36.184C112.315 36.776 112.427 37.2 112.667 37.456C112.923 37.712 113.331 37.84 113.891 37.84C114.451 37.84 115.011 37.72 115.571 37.48C116.131 37.24 116.811 36.88 117.611 36.4L117.899 38.128C117.003 38.848 116.139 39.392 115.307 39.76C114.475 40.128 113.611 40.312 112.715 40.312C110.523 40.312 109.427 39.232 109.427 37.072V28.216H112.331ZM120.227 28.216V40H117.923L117.611 37.72L117.323 37.384V28.216H120.227ZM128.747 27.928C130.651 27.928 132.019 28.264 132.851 28.936C133.683 29.592 134.107 30.568 134.123 31.864C134.139 32.936 133.883 33.752 133.355 34.312C132.843 34.856 131.987 35.128 130.787 35.128H124.067V33.328H129.995C130.539 33.328 130.883 33.184 131.027 32.896C131.187 32.608 131.267 32.256 131.267 31.84C131.251 31.184 131.059 30.728 130.691 30.472C130.339 30.216 129.731 30.088 128.867 30.088C128.115 30.088 127.531 30.192 127.115 30.4C126.699 30.608 126.403 30.984 126.227 31.528C126.067 32.072 125.987 32.856 125.987 33.88C125.987 34.968 126.091 35.808 126.299 36.4C126.507 36.992 126.851 37.4 127.331 37.624C127.811 37.832 128.451 37.936 129.251 37.936C129.843 37.936 130.523 37.912 131.291 37.864C132.075 37.816 132.827 37.752 133.547 37.672L133.835 39.52C133.403 39.696 132.907 39.84 132.347 39.952C131.787 40.064 131.203 40.144 130.595 40.192C130.003 40.256 129.443 40.288 128.915 40.288C127.475 40.288 126.315 40.08 125.435 39.664C124.571 39.232 123.939 38.56 123.539 37.648C123.155 36.736 122.963 35.56 122.963 34.12C122.963 32.568 123.155 31.344 123.539 30.448C123.939 29.536 124.563 28.888 125.411 28.504C126.275 28.12 127.387 27.928 128.747 27.928ZM140.982 27.928C141.526 27.928 142.11 27.944 142.734 27.976C143.374 28.008 143.998 28.056 144.606 28.12C145.214 28.168 145.758 28.24 146.238 28.336L146.046 30.232C145.278 30.216 144.51 30.2 143.742 30.184C142.99 30.152 142.246 30.136 141.51 30.136C140.854 30.136 140.334 30.152 139.95 30.184C139.582 30.216 139.318 30.312 139.158 30.472C139.014 30.632 138.942 30.904 138.942 31.288C138.942 31.752 139.07 32.064 139.326 32.224C139.582 32.368 139.998 32.512 140.574 32.656L143.79 33.4C144.75 33.64 145.462 34.008 145.926 34.504C146.39 34.984 146.622 35.728 146.622 36.736C146.622 37.712 146.438 38.456 146.07 38.968C145.718 39.464 145.15 39.808 144.366 40C143.598 40.176 142.614 40.264 141.414 40.264C140.95 40.264 140.262 40.24 139.35 40.192C138.438 40.16 137.438 40.056 136.35 39.88L136.542 37.984C136.862 37.984 137.238 37.992 137.67 38.008C138.118 38.024 138.59 38.032 139.086 38.032C139.598 38.032 140.118 38.032 140.646 38.032C141.494 38.032 142.142 38.008 142.59 37.96C143.054 37.896 143.374 37.776 143.55 37.6C143.726 37.408 143.814 37.136 143.814 36.784C143.814 36.336 143.662 36.04 143.358 35.896C143.07 35.736 142.638 35.584 142.062 35.44L138.918 34.672C138.198 34.48 137.638 34.24 137.238 33.952C136.838 33.648 136.55 33.28 136.374 32.848C136.198 32.4 136.11 31.856 136.11 31.216C136.11 30.352 136.27 29.68 136.59 29.2C136.926 28.72 137.446 28.384 138.15 28.192C138.87 28 139.814 27.912 140.982 27.928ZM153.137 24.856V36.448C153.137 36.944 153.241 37.296 153.449 37.504C153.673 37.712 154.049 37.816 154.577 37.816H156.209L156.521 39.856C156.249 39.936 155.921 40.008 155.537 40.072C155.153 40.136 154.777 40.176 154.409 40.192C154.041 40.224 153.729 40.24 153.473 40.24C152.449 40.24 151.649 39.968 151.073 39.424C150.513 38.864 150.233 38.064 150.233 37.024V24.856H153.137ZM156.641 28.216V30.232H148.145V28.336L150.449 28.216H156.641ZM169.966 27.928C170.91 27.928 171.702 28.056 172.342 28.312C172.998 28.552 173.494 28.968 173.83 29.56C174.166 30.152 174.334 30.968 174.334 32.008V40H172.03L171.622 37.456L171.406 37.12V31.984C171.406 31.36 171.262 30.912 170.974 30.64C170.686 30.352 170.134 30.208 169.318 30.208C168.71 30.208 167.942 30.232 167.014 30.28C166.102 30.328 165.182 30.392 164.254 30.472L163.99 28.48C164.55 28.368 165.182 28.272 165.886 28.192C166.59 28.112 167.302 28.048 168.022 28C168.742 27.952 169.39 27.928 169.966 27.928ZM173.086 32.752L173.062 34.552H167.662C167.182 34.568 166.838 34.696 166.63 34.936C166.422 35.176 166.318 35.504 166.318 35.92V36.568C166.318 37.048 166.446 37.416 166.702 37.672C166.958 37.912 167.358 38.032 167.902 38.032C168.334 38.032 168.814 37.944 169.342 37.768C169.87 37.592 170.39 37.336 170.902 37C171.43 36.664 171.902 36.264 172.318 35.8V37.312C172.158 37.552 171.926 37.84 171.622 38.176C171.318 38.496 170.942 38.816 170.494 39.136C170.062 39.456 169.558 39.72 168.982 39.928C168.422 40.136 167.798 40.24 167.11 40.24C166.406 40.24 165.774 40.12 165.214 39.88C164.654 39.624 164.214 39.256 163.894 38.776C163.574 38.28 163.414 37.672 163.414 36.952V35.704C163.414 34.776 163.718 34.056 164.326 33.544C164.95 33.016 165.798 32.752 166.87 32.752H173.086ZM190.493 27.928C192.685 27.928 193.781 29.008 193.781 31.168V40H190.877V32.056C190.877 31.416 190.765 30.976 190.541 30.736C190.317 30.496 189.941 30.376 189.413 30.376C188.821 30.376 188.213 30.512 187.589 30.784C186.965 31.04 186.213 31.416 185.333 31.912L185.213 30.16C186.077 29.44 186.957 28.888 187.853 28.504C188.749 28.12 189.629 27.928 190.493 27.928ZM185.117 28.216L185.405 30.52L185.645 30.856V40H182.741V28.216H185.117ZM202.224 27.928C204.128 27.928 205.496 28.264 206.328 28.936C207.16 29.592 207.584 30.568 207.6 31.864C207.616 32.936 207.36 33.752 206.832 34.312C206.32 34.856 205.464 35.128 204.264 35.128H197.544V33.328H203.472C204.016 33.328 204.36 33.184 204.504 32.896C204.664 32.608 204.744 32.256 204.744 31.84C204.728 31.184 204.536 30.728 204.168 30.472C203.816 30.216 203.208 30.088 202.344 30.088C201.592 30.088 201.008 30.192 200.592 30.4C200.176 30.608 199.88 30.984 199.704 31.528C199.544 32.072 199.464 32.856 199.464 33.88C199.464 34.968 199.568 35.808 199.776 36.4C199.984 36.992 200.328 37.4 200.808 37.624C201.288 37.832 201.928 37.936 202.728 37.936C203.32 37.936 204 37.912 204.768 37.864C205.552 37.816 206.304 37.752 207.024 37.672L207.312 39.52C206.88 39.696 206.384 39.84 205.824 39.952C205.264 40.064 204.68 40.144 204.072 40.192C203.48 40.256 202.92 40.288 202.392 40.288C200.952 40.288 199.792 40.08 198.912 39.664C198.048 39.232 197.416 38.56 197.016 37.648C196.632 36.736 196.44 35.56 196.44 34.12C196.44 32.568 196.632 31.344 197.016 30.448C197.416 29.536 198.04 28.888 198.888 28.504C199.752 28.12 200.864 27.928 202.224 27.928ZM228.211 28.216L225.091 39.232C225.027 39.456 224.899 39.64 224.707 39.784C224.515 39.928 224.291 40 224.035 40H221.707C221.451 40 221.219 39.92 221.011 39.76C220.803 39.6 220.683 39.384 220.651 39.112L219.091 31.888C219.027 31.568 218.971 31.248 218.923 30.928C218.891 30.608 218.843 30.288 218.779 29.968H218.467C218.419 30.288 218.363 30.608 218.299 30.928C218.251 31.248 218.195 31.568 218.131 31.888L216.595 39.112C216.547 39.384 216.419 39.6 216.211 39.76C216.019 39.92 215.787 40 215.515 40H213.211C212.955 40 212.731 39.928 212.539 39.784C212.347 39.64 212.227 39.456 212.179 39.232L209.035 28.216H211.987L213.955 36.304C214.019 36.608 214.075 36.92 214.123 37.24C214.187 37.544 214.243 37.848 214.291 38.152H214.579C214.659 37.848 214.723 37.544 214.771 37.24C214.835 36.92 214.899 36.608 214.963 36.304L216.523 29.104C216.571 28.848 216.683 28.64 216.859 28.48C217.051 28.304 217.291 28.216 217.579 28.216H219.691C219.947 28.216 220.171 28.304 220.363 28.48C220.555 28.64 220.675 28.856 220.723 29.128L222.283 36.304C222.331 36.608 222.387 36.912 222.451 37.216C222.531 37.52 222.595 37.832 222.643 38.152H222.931C222.995 37.832 223.051 37.528 223.099 37.24C223.147 36.936 223.211 36.624 223.291 36.304L225.259 28.216H228.211ZM238.005 23.2V36.448C238.005 36.896 238.133 37.24 238.389 37.48C238.645 37.704 239.013 37.816 239.493 37.816H240.525L240.861 39.856C240.685 39.936 240.437 40.008 240.117 40.072C239.813 40.136 239.493 40.176 239.157 40.192C238.837 40.224 238.557 40.24 238.317 40.24C237.341 40.24 236.565 39.976 235.989 39.448C235.413 38.92 235.125 38.16 235.125 37.168V23.2H238.005ZM245.647 28.216V40H242.767V28.216H245.647ZM244.855 23.104C245.431 23.104 245.719 23.392 245.719 23.968V25.312C245.719 25.888 245.431 26.176 244.855 26.176H243.559C242.983 26.176 242.695 25.888 242.695 25.312V23.968C242.695 23.392 242.983 23.104 243.559 23.104H244.855ZM256.751 27.928C258.943 27.928 260.039 29.008 260.039 31.168V40H257.135V32.056C257.135 31.416 257.023 30.976 256.799 30.736C256.575 30.496 256.199 30.376 255.671 30.376C255.079 30.376 254.471 30.512 253.847 30.784C253.223 31.04 252.471 31.416 251.591 31.912L251.471 30.16C252.335 29.44 253.215 28.888 254.111 28.504C255.007 28.12 255.887 27.928 256.751 27.928ZM251.375 28.216L251.663 30.52L251.903 30.856V40H248.999V28.216H251.375ZM273.882 28.216L270.522 32.416C270.394 32.608 270.234 32.8 270.042 32.992C269.85 33.168 269.682 33.304 269.538 33.4V33.448C269.682 33.544 269.85 33.704 270.042 33.928C270.234 34.136 270.394 34.352 270.522 34.576L274.266 40H270.978L266.682 33.328L270.594 28.216H273.882ZM266.13 23.2L266.154 30.376C266.154 30.904 266.122 31.408 266.058 31.888C266.01 32.368 265.938 32.856 265.842 33.352C265.922 33.816 265.986 34.296 266.034 34.792C266.098 35.288 266.13 35.752 266.13 36.184V40H263.226V23.2H266.13ZM267.93 32.464V34.336H265.194V32.464H267.93Z" fill="white"/>
<defs>
<linearGradient id="paint0_linear_2271_491" x1="123.847" y1="65.6269" x2="127.867" y2="21.392" gradientUnits="userSpaceOnUse">
<stop stop-color="white"/>
<stop offset="0.182692" stop-color="#8C8C8C"/>
<stop offset="0.278846" stop-color="#FF9584"/>
<stop offset="0.399038" stop-color="#DFED43"/>
<stop offset="0.495192" stop-color="#A0F885"/>
<stop offset="0.58953" stop-color="#74BFF7"/>
<stop offset="0.6706" stop-color="#7C72DB"/>
<stop offset="0.75167" stop-color="#8681A8"/>
<stop offset="1" stop-color="white"/>
</linearGradient>
</defs>
</svg>
