<svg width="166" height="46" viewBox="0 0 166 46" fill="none" xmlns="http://www.w3.org/2000/svg">
<path d="M1.69275 37.7022L10.2938 5.70215C10.8808 3.51808 12.8608 2 15.1224 2H158.778C161.973 2 164.348 4.95611 163.66 8.07649L156.605 40.0765C156.1 42.3681 154.069 44 151.723 44H6.52137C3.23213 44 0.83896 40.8787 1.69275 37.7022Z" fill="url(#paint0_linear_3022_14364)" stroke="url(#paint1_linear_3022_14364)" stroke-width="3"/>
<path d="M26.5948 17.58V30H24.3448V17.58H26.5948ZM30.4468 17.58V19.416H20.4928V17.58H30.4468ZM34.1243 20.946C35.2043 20.946 36.0623 21.096 36.6983 21.396C37.3463 21.696 37.8083 22.188 38.0843 22.872C38.3723 23.556 38.5163 24.462 38.5163 25.59C38.5163 26.718 38.3723 27.624 38.0843 28.308C37.8083 28.98 37.3463 29.472 36.6983 29.784C36.0623 30.084 35.2043 30.234 34.1243 30.234C33.0683 30.234 32.2163 30.084 31.5683 29.784C30.9323 29.472 30.4703 28.98 30.1823 28.308C29.8943 27.624 29.7503 26.718 29.7503 25.59C29.7503 24.462 29.8943 23.556 30.1823 22.872C30.4703 22.188 30.9323 21.696 31.5683 21.396C32.2163 21.096 33.0683 20.946 34.1243 20.946ZM34.1243 22.602C33.5963 22.602 33.1763 22.692 32.8643 22.872C32.5643 23.04 32.3483 23.34 32.2163 23.772C32.0843 24.204 32.0183 24.81 32.0183 25.59C32.0183 26.37 32.0843 26.976 32.2163 27.408C32.3483 27.84 32.5643 28.14 32.8643 28.308C33.1763 28.476 33.5963 28.56 34.1243 28.56C34.6643 28.56 35.0903 28.476 35.4023 28.308C35.7143 28.14 35.9303 27.84 36.0503 27.408C36.1823 26.976 36.2483 26.37 36.2483 25.59C36.2483 24.81 36.1823 24.204 36.0503 23.772C35.9303 23.34 35.7143 23.04 35.4023 22.872C35.0903 22.692 34.6643 22.602 34.1243 22.602ZM46.0597 20.946C47.1517 20.946 47.9377 21.348 48.4177 22.152C48.8977 22.956 49.1377 24.12 49.1377 25.644C49.1377 26.808 49.0117 27.726 48.7597 28.398C48.5197 29.058 48.1537 29.532 47.6617 29.82C47.1697 30.096 46.5457 30.234 45.7897 30.234C45.1897 30.234 44.6017 30.15 44.0257 29.982C43.4617 29.802 42.9397 29.526 42.4597 29.154L42.6037 28.074C43.0717 28.206 43.4917 28.32 43.8637 28.416C44.2357 28.512 44.6437 28.56 45.0877 28.56C45.5317 28.56 45.8797 28.488 46.1317 28.344C46.3957 28.188 46.5877 27.9 46.7077 27.48C46.8277 27.06 46.8877 26.454 46.8877 25.662C46.8877 24.882 46.8337 24.276 46.7257 23.844C46.6177 23.412 46.4377 23.112 46.1857 22.944C45.9457 22.764 45.6277 22.674 45.2317 22.674C44.7997 22.674 44.3917 22.77 44.0077 22.962C43.6237 23.142 43.1797 23.412 42.6757 23.772L42.4237 22.62C42.6997 22.296 43.0297 22.008 43.4137 21.756C43.8097 21.504 44.2357 21.306 44.6917 21.162C45.1477 21.018 45.6037 20.946 46.0597 20.946ZM42.3337 21.162L42.5497 22.872L42.7477 23.124V28.83L42.6577 29.046C42.6937 29.394 42.7177 29.742 42.7297 30.09C42.7417 30.45 42.7477 30.816 42.7477 31.188V33.51H40.5697V21.162H42.3337ZM57.2835 21.162V27.138C57.2715 27.582 57.3555 27.9 57.5355 28.092C57.7275 28.284 58.0335 28.38 58.4535 28.38C58.8735 28.38 59.2935 28.29 59.7135 28.11C60.1335 27.93 60.6435 27.66 61.2435 27.3L61.4595 28.596C60.7875 29.136 60.1395 29.544 59.5155 29.82C58.8915 30.096 58.2435 30.234 57.5715 30.234C55.9275 30.234 55.1055 29.424 55.1055 27.804V21.162H57.2835ZM63.2055 21.162V30H61.4775L61.2435 28.29L61.0275 28.038V21.162H63.2055ZM71.1437 20.946C72.2357 20.946 73.0217 21.348 73.5017 22.152C73.9817 22.956 74.2217 24.12 74.2217 25.644C74.2217 26.808 74.0957 27.726 73.8437 28.398C73.6037 29.058 73.2377 29.532 72.7457 29.82C72.2537 30.096 71.6297 30.234 70.8737 30.234C70.2737 30.234 69.6857 30.15 69.1097 29.982C68.5457 29.802 68.0237 29.526 67.5437 29.154L67.6877 28.074C68.1557 28.206 68.5757 28.32 68.9477 28.416C69.3197 28.512 69.7277 28.56 70.1717 28.56C70.6157 28.56 70.9637 28.488 71.2157 28.344C71.4797 28.188 71.6717 27.9 71.7917 27.48C71.9117 27.06 71.9717 26.454 71.9717 25.662C71.9717 24.882 71.9177 24.276 71.8097 23.844C71.7017 23.412 71.5217 23.112 71.2697 22.944C71.0297 22.764 70.7117 22.674 70.3157 22.674C69.8837 22.674 69.4757 22.77 69.0917 22.962C68.7077 23.142 68.2637 23.412 67.7597 23.772L67.5077 22.62C67.7837 22.296 68.1137 22.008 68.4977 21.756C68.8937 21.504 69.3197 21.306 69.7757 21.162C70.2317 21.018 70.6877 20.946 71.1437 20.946ZM67.4177 21.162L67.6337 22.872L67.8317 23.124V28.83L67.7417 29.046C67.7777 29.394 67.8017 29.742 67.8137 30.09C67.8257 30.45 67.8317 30.816 67.8317 31.188V33.51H65.6537V21.162H67.4177ZM85.4635 20.946C86.5915 20.946 87.4135 21.3 87.9295 22.008C88.4455 22.716 88.7035 23.892 88.7035 25.536C88.7035 26.244 88.6375 26.886 88.5055 27.462C88.3855 28.038 88.1695 28.536 87.8575 28.956C87.5575 29.364 87.1375 29.676 86.5975 29.892C86.0575 30.108 85.3675 30.216 84.5275 30.216C84.2275 30.216 83.8855 30.204 83.5015 30.18C83.1175 30.156 82.7275 30.114 82.3315 30.054C81.9355 29.994 81.5515 29.928 81.1795 29.856C80.8195 29.772 80.4955 29.67 80.2075 29.55L81.9535 28.218C82.2175 28.302 82.4935 28.374 82.7815 28.434C83.0815 28.482 83.3755 28.518 83.6635 28.542C83.9635 28.554 84.2395 28.56 84.4915 28.56C84.9715 28.548 85.3495 28.452 85.6255 28.272C85.9135 28.092 86.1235 27.786 86.2555 27.354C86.3875 26.91 86.4535 26.304 86.4535 25.536C86.4535 24.816 86.3995 24.252 86.2915 23.844C86.1955 23.424 86.0155 23.13 85.7515 22.962C85.4875 22.794 85.1095 22.71 84.6175 22.71C84.1855 22.71 83.7835 22.812 83.4115 23.016C83.0515 23.22 82.6315 23.496 82.1515 23.844L82.0075 22.674C82.3315 22.326 82.6735 22.02 83.0335 21.756C83.4055 21.492 83.7955 21.294 84.2035 21.162C84.6235 21.018 85.0435 20.946 85.4635 20.946ZM82.3855 17.4L82.4035 20.46C82.4035 20.844 82.3855 21.216 82.3495 21.576C82.3255 21.924 82.2655 22.266 82.1695 22.602L82.3855 22.854V29.658L80.2075 29.55V17.4H82.3855ZM95.2013 20.946C95.9093 20.946 96.5033 21.042 96.9833 21.234C97.4753 21.414 97.8473 21.726 98.0993 22.17C98.3513 22.614 98.4773 23.226 98.4773 24.006V30H96.7493L96.4433 28.092L96.2813 27.84V23.988C96.2813 23.52 96.1733 23.184 95.9573 22.98C95.7413 22.764 95.3273 22.656 94.7153 22.656C94.2593 22.656 93.6833 22.674 92.9873 22.71C92.3033 22.746 91.6133 22.794 90.9173 22.854L90.7192 21.36C91.1393 21.276 91.6133 21.204 92.1413 21.144C92.6693 21.084 93.2033 21.036 93.7433 21C94.2833 20.964 94.7693 20.946 95.2013 20.946ZM97.5413 24.564L97.5233 25.914H93.4733C93.1133 25.926 92.8553 26.022 92.6993 26.202C92.5433 26.382 92.4653 26.628 92.4653 26.94V27.426C92.4653 27.786 92.5613 28.062 92.7533 28.254C92.9453 28.434 93.2453 28.524 93.6533 28.524C93.9773 28.524 94.3373 28.458 94.7333 28.326C95.1293 28.194 95.5193 28.002 95.9033 27.75C96.2993 27.498 96.6533 27.198 96.9653 26.85V27.984C96.8453 28.164 96.6713 28.38 96.4433 28.632C96.2153 28.872 95.9333 29.112 95.5973 29.352C95.2733 29.592 94.8953 29.79 94.4633 29.946C94.0433 30.102 93.5753 30.18 93.0593 30.18C92.5313 30.18 92.0573 30.09 91.6373 29.91C91.2173 29.718 90.8873 29.442 90.6473 29.082C90.4073 28.71 90.2873 28.254 90.2873 27.714V26.778C90.2873 26.082 90.5153 25.542 90.9713 25.158C91.4393 24.762 92.0753 24.564 92.8793 24.564H97.5413ZM103.023 17.4V27.336C103.023 27.672 103.119 27.93 103.311 28.11C103.503 28.278 103.779 28.362 104.139 28.362H104.913L105.165 29.892C105.033 29.952 104.847 30.006 104.607 30.054C104.379 30.102 104.139 30.132 103.887 30.144C103.647 30.168 103.437 30.18 103.257 30.18C102.525 30.18 101.943 29.982 101.511 29.586C101.079 29.19 100.863 28.62 100.863 27.876V17.4H103.023ZM110.969 20.946C111.677 20.946 112.271 21.042 112.751 21.234C113.243 21.414 113.615 21.726 113.867 22.17C114.119 22.614 114.245 23.226 114.245 24.006V30H112.517L112.211 28.092L112.049 27.84V23.988C112.049 23.52 111.941 23.184 111.725 22.98C111.509 22.764 111.095 22.656 110.483 22.656C110.027 22.656 109.451 22.674 108.755 22.71C108.071 22.746 107.381 22.794 106.685 22.854L106.487 21.36C106.907 21.276 107.381 21.204 107.909 21.144C108.437 21.084 108.971 21.036 109.511 21C110.051 20.964 110.537 20.946 110.969 20.946ZM113.309 24.564L113.291 25.914H109.241C108.881 25.926 108.623 26.022 108.467 26.202C108.311 26.382 108.233 26.628 108.233 26.94V27.426C108.233 27.786 108.329 28.062 108.521 28.254C108.713 28.434 109.013 28.524 109.421 28.524C109.745 28.524 110.105 28.458 110.501 28.326C110.897 28.194 111.287 28.002 111.671 27.75C112.067 27.498 112.421 27.198 112.733 26.85V27.984C112.613 28.164 112.439 28.38 112.211 28.632C111.983 28.872 111.701 29.112 111.365 29.352C111.041 29.592 110.663 29.79 110.231 29.946C109.811 30.102 109.343 30.18 108.827 30.18C108.299 30.18 107.825 30.09 107.405 29.91C106.985 29.718 106.655 29.442 106.415 29.082C106.175 28.71 106.055 28.254 106.055 27.714V26.778C106.055 26.082 106.283 25.542 106.739 25.158C107.207 24.762 107.843 24.564 108.647 24.564H113.309ZM122.427 20.946C124.071 20.946 124.893 21.756 124.893 23.376V30H122.715V24.042C122.715 23.562 122.631 23.232 122.463 23.052C122.295 22.872 122.013 22.782 121.617 22.782C121.173 22.782 120.717 22.884 120.249 23.088C119.781 23.28 119.217 23.562 118.557 23.934L118.467 22.62C119.115 22.08 119.775 21.666 120.447 21.378C121.119 21.09 121.779 20.946 122.427 20.946ZM118.395 21.162L118.611 22.89L118.791 23.142V30H116.613V21.162H118.395ZM131.243 20.946C131.543 20.946 131.873 20.958 132.233 20.982C132.593 21.006 132.959 21.054 133.331 21.126C133.703 21.198 134.039 21.3 134.339 21.432L134.087 22.8C133.643 22.776 133.199 22.758 132.755 22.746C132.323 22.734 131.945 22.728 131.621 22.728C131.009 22.728 130.523 22.812 130.163 22.98C129.815 23.136 129.563 23.424 129.407 23.844C129.251 24.252 129.173 24.828 129.173 25.572C129.173 26.316 129.251 26.898 129.407 27.318C129.563 27.726 129.815 28.014 130.163 28.182C130.523 28.35 131.009 28.434 131.621 28.434C131.801 28.434 132.035 28.428 132.323 28.416C132.623 28.404 132.941 28.386 133.277 28.362C133.625 28.338 133.961 28.308 134.285 28.272L134.501 29.676C134.033 29.868 133.511 30.006 132.935 30.09C132.359 30.174 131.789 30.216 131.225 30.216C130.169 30.216 129.323 30.066 128.687 29.766C128.051 29.466 127.589 28.98 127.301 28.308C127.025 27.624 126.887 26.712 126.887 25.572C126.887 24.432 127.031 23.526 127.319 22.854C127.607 22.17 128.069 21.684 128.705 21.396C129.341 21.096 130.187 20.946 131.243 20.946ZM140.102 20.946C141.53 20.946 142.556 21.198 143.18 21.702C143.804 22.194 144.122 22.926 144.134 23.898C144.146 24.702 143.954 25.314 143.558 25.734C143.174 26.142 142.532 26.346 141.632 26.346H136.592V24.996H141.038C141.446 24.996 141.704 24.888 141.812 24.672C141.932 24.456 141.992 24.192 141.992 23.88C141.98 23.388 141.836 23.046 141.56 22.854C141.296 22.662 140.84 22.566 140.192 22.566C139.628 22.566 139.19 22.644 138.878 22.8C138.566 22.956 138.344 23.238 138.212 23.646C138.092 24.054 138.032 24.642 138.032 25.41C138.032 26.226 138.11 26.856 138.266 27.3C138.422 27.744 138.68 28.05 139.04 28.218C139.4 28.374 139.88 28.452 140.48 28.452C140.924 28.452 141.434 28.434 142.01 28.398C142.598 28.362 143.162 28.314 143.702 28.254L143.918 29.64C143.594 29.772 143.222 29.88 142.802 29.964C142.382 30.048 141.944 30.108 141.488 30.144C141.044 30.192 140.624 30.216 140.228 30.216C139.148 30.216 138.278 30.06 137.618 29.748C136.97 29.424 136.496 28.92 136.196 28.236C135.908 27.552 135.764 26.67 135.764 25.59C135.764 24.426 135.908 23.508 136.196 22.836C136.496 22.152 136.964 21.666 137.6 21.378C138.248 21.09 139.082 20.946 140.102 20.946Z" fill="white"/>
<defs>
<linearGradient id="paint0_linear_3022_14364" x1="0" y1="23" x2="165" y2="23" gradientUnits="userSpaceOnUse">
<stop stop-color="#121218"/>
<stop offset="1" stop-color="#474350"/>
</linearGradient>
<linearGradient id="paint1_linear_3022_14364" x1="60.458" y1="48.0746" x2="64.7337" y2="16.3543" gradientUnits="userSpaceOnUse">
<stop stop-color="white"/>
<stop offset="0.182692" stop-color="#8C8C8C"/>
<stop offset="0.278846" stop-color="#FF9584"/>
<stop offset="0.399038" stop-color="#DFED43"/>
<stop offset="0.495192" stop-color="#A0F885"/>
<stop offset="0.58953" stop-color="#74BFF7"/>
<stop offset="0.6706" stop-color="#7C72DB"/>
<stop offset="0.75167" stop-color="#8681A8"/>
<stop offset="1" stop-color="white"/>
</linearGradient>
</defs>
</svg>
