<svg width="339" height="62" viewBox="0 0 339 62" fill="none" xmlns="http://www.w3.org/2000/svg">
<path d="M2.73186 53.1482L21.8699 5.14822C22.6278 3.2472 24.4677 2 26.5143 2H331.104C334.505 2 336.914 5.32181 335.857 8.5542L320.159 56.5542C319.486 58.6097 317.569 60 315.406 60H7.37631C3.84137 60 1.42268 56.4318 2.73186 53.1482Z" fill="#121218" stroke="url(#paint0_linear_2275_437)" stroke-width="4"/>
<path d="M152.096 23.44L147.368 39.16C147.288 39.4 147.152 39.6 146.96 39.76C146.768 39.92 146.536 40 146.264 40H143.432C143.16 40 142.928 39.92 142.736 39.76C142.544 39.6 142.416 39.4 142.352 39.16L137.624 23.44H140.72L144.104 35.896C144.184 36.2 144.264 36.504 144.344 36.808C144.424 37.112 144.488 37.416 144.536 37.72H145.16C145.24 37.416 145.312 37.112 145.376 36.808C145.456 36.488 145.536 36.176 145.616 35.872L149 23.44H152.096ZM158.357 27.928C160.261 27.928 161.629 28.264 162.461 28.936C163.293 29.592 163.717 30.568 163.733 31.864C163.749 32.936 163.493 33.752 162.965 34.312C162.453 34.856 161.597 35.128 160.397 35.128H153.677V33.328H159.605C160.149 33.328 160.493 33.184 160.637 32.896C160.797 32.608 160.877 32.256 160.877 31.84C160.861 31.184 160.669 30.728 160.301 30.472C159.949 30.216 159.341 30.088 158.477 30.088C157.725 30.088 157.141 30.192 156.725 30.4C156.309 30.608 156.013 30.984 155.837 31.528C155.677 32.072 155.597 32.856 155.597 33.88C155.597 34.968 155.701 35.808 155.909 36.4C156.117 36.992 156.461 37.4 156.941 37.624C157.421 37.832 158.061 37.936 158.861 37.936C159.453 37.936 160.133 37.912 160.901 37.864C161.685 37.816 162.437 37.752 163.157 37.672L163.445 39.52C163.013 39.696 162.517 39.84 161.957 39.952C161.397 40.064 160.813 40.144 160.205 40.192C159.613 40.256 159.053 40.288 158.525 40.288C157.085 40.288 155.925 40.08 155.045 39.664C154.181 39.232 153.549 38.56 153.149 37.648C152.765 36.736 152.573 35.56 152.573 34.12C152.573 32.568 152.765 31.344 153.149 30.448C153.549 29.536 154.173 28.888 155.021 28.504C155.885 28.12 156.997 27.928 158.357 27.928ZM168.599 28.216L168.983 30.52L169.247 30.856V40H166.343V28.216H168.599ZM174.359 27.928L174.071 30.616H173.231C172.607 30.616 171.975 30.72 171.335 30.928C170.695 31.136 169.895 31.448 168.935 31.864L168.743 30.16C169.575 29.456 170.423 28.912 171.287 28.528C172.151 28.128 172.983 27.928 173.783 27.928H174.359ZM179.303 28.216V40H176.423V28.216H179.303ZM178.511 23.104C179.087 23.104 179.375 23.392 179.375 23.968V25.312C179.375 25.888 179.087 26.176 178.511 26.176H177.215C176.639 26.176 176.351 25.888 176.351 25.312V23.968C176.351 23.392 176.639 23.104 177.215 23.104H178.511ZM187.335 22.744C187.607 22.744 187.959 22.752 188.391 22.768C188.839 22.784 189.295 22.808 189.759 22.84C190.223 22.856 190.615 22.896 190.935 22.96L190.695 24.904H188.367C187.695 24.904 187.223 25.04 186.951 25.312C186.679 25.584 186.543 26.04 186.543 26.68V40H183.639V26.32C183.639 25.568 183.759 24.928 183.999 24.4C184.239 23.872 184.631 23.464 185.175 23.176C185.719 22.888 186.439 22.744 187.335 22.744ZM190.047 28.216V30.232H181.551V28.336L183.735 28.216H190.047ZM203.357 28.216L198.941 40.36C198.733 40.92 198.469 41.472 198.149 42.016C197.845 42.576 197.453 43.08 196.973 43.528C196.493 43.976 195.925 44.328 195.269 44.584C194.613 44.84 193.853 44.936 192.989 44.872L192.749 43.144C193.709 42.872 194.453 42.504 194.981 42.04C195.525 41.576 195.949 40.984 196.253 40.264L196.901 38.728C197.045 38.376 197.181 37.976 197.309 37.528C197.453 37.064 197.573 36.664 197.669 36.328L200.237 28.216H203.357ZM193.853 28.216L196.469 36.328C196.549 36.6 196.621 36.88 196.685 37.168C196.749 37.44 196.805 37.712 196.853 37.984H197.453L196.541 40H195.773C195.549 40 195.349 39.936 195.173 39.808C194.997 39.68 194.877 39.504 194.813 39.28L190.757 28.216H193.853Z" fill="white"/>
<defs>
<linearGradient id="paint0_linear_2275_437" x1="123.847" y1="65.6269" x2="127.867" y2="21.392" gradientUnits="userSpaceOnUse">
<stop stop-color="white"/>
<stop offset="0.182692" stop-color="#8C8C8C"/>
<stop offset="0.278846" stop-color="#FF9584"/>
<stop offset="0.399038" stop-color="#DFED43"/>
<stop offset="0.495192" stop-color="#A0F885"/>
<stop offset="0.58953" stop-color="#74BFF7"/>
<stop offset="0.6706" stop-color="#7C72DB"/>
<stop offset="0.75167" stop-color="#8681A8"/>
<stop offset="1" stop-color="white"/>
</linearGradient>
</defs>
</svg>
