<svg width="269" height="62" viewBox="0 0 269 62" fill="none" xmlns="http://www.w3.org/2000/svg">
<path d="M3.00158 53.5236L17.8364 5.52361C18.4838 3.42866 20.4207 2 22.6134 2H256.574C259.834 2 262.222 5.06895 261.421 8.22866L249.253 56.2287C248.69 58.4467 246.694 60 244.406 60H7.77864C4.412 60 2.00749 56.7401 3.00158 53.5236Z" fill="url(#paint0_linear_2869_17558)" stroke="url(#paint1_linear_2869_17558)" stroke-width="4"/>
<path d="M48.01 24.44L43.282 40.16C43.202 40.4 43.066 40.6 42.874 40.76C42.682 40.92 42.45 41 42.178 41H39.346C39.074 41 38.842 40.92 38.65 40.76C38.458 40.6 38.33 40.4 38.266 40.16L33.538 24.44H36.634L40.018 36.896C40.098 37.2 40.178 37.504 40.258 37.808C40.338 38.112 40.402 38.416 40.45 38.72H41.074C41.154 38.416 41.226 38.112 41.29 37.808C41.37 37.488 41.45 37.176 41.53 36.872L44.914 24.44H48.01ZM52.9049 29.216V41H50.0249V29.216H52.9049ZM52.1129 24.104C52.6889 24.104 52.9769 24.392 52.9769 24.968V26.312C52.9769 26.888 52.6889 27.176 52.1129 27.176H50.8169C50.2409 27.176 49.9529 26.888 49.9529 26.312V24.968C49.9529 24.392 50.2409 24.104 50.8169 24.104H52.1129ZM61.513 28.928C63.417 28.928 64.785 29.264 65.617 29.936C66.449 30.592 66.873 31.568 66.889 32.864C66.905 33.936 66.649 34.752 66.121 35.312C65.609 35.856 64.753 36.128 63.553 36.128H56.833V34.328H62.761C63.305 34.328 63.649 34.184 63.793 33.896C63.953 33.608 64.033 33.256 64.033 32.84C64.017 32.184 63.825 31.728 63.457 31.472C63.105 31.216 62.497 31.088 61.633 31.088C60.881 31.088 60.297 31.192 59.881 31.4C59.465 31.608 59.169 31.984 58.993 32.528C58.833 33.072 58.753 33.856 58.753 34.88C58.753 35.968 58.857 36.808 59.065 37.4C59.273 37.992 59.617 38.4 60.097 38.624C60.577 38.832 61.217 38.936 62.017 38.936C62.609 38.936 63.289 38.912 64.057 38.864C64.841 38.816 65.593 38.752 66.313 38.672L66.601 40.52C66.169 40.696 65.673 40.84 65.113 40.952C64.553 41.064 63.969 41.144 63.361 41.192C62.769 41.256 62.209 41.288 61.681 41.288C60.241 41.288 59.081 41.08 58.201 40.664C57.337 40.232 56.705 39.56 56.305 38.648C55.921 37.736 55.729 36.56 55.729 35.12C55.729 33.568 55.921 32.344 56.305 31.448C56.705 30.536 57.329 29.888 58.177 29.504C59.041 29.12 60.153 28.928 61.513 28.928ZM87.4998 29.216L84.3798 40.232C84.3158 40.456 84.1878 40.64 83.9958 40.784C83.8038 40.928 83.5798 41 83.3238 41H80.9958C80.7398 41 80.5078 40.92 80.2998 40.76C80.0918 40.6 79.9718 40.384 79.9398 40.112L78.3798 32.888C78.3158 32.568 78.2598 32.248 78.2118 31.928C78.1798 31.608 78.1318 31.288 78.0678 30.968H77.7558C77.7078 31.288 77.6518 31.608 77.5878 31.928C77.5398 32.248 77.4838 32.568 77.4198 32.888L75.8838 40.112C75.8358 40.384 75.7078 40.6 75.4998 40.76C75.3078 40.92 75.0758 41 74.8038 41H72.4998C72.2438 41 72.0198 40.928 71.8278 40.784C71.6358 40.64 71.5158 40.456 71.4678 40.232L68.3238 29.216H71.2758L73.2438 37.304C73.3078 37.608 73.3638 37.92 73.4118 38.24C73.4758 38.544 73.5318 38.848 73.5798 39.152H73.8678C73.9478 38.848 74.0118 38.544 74.0598 38.24C74.1238 37.92 74.1878 37.608 74.2518 37.304L75.8118 30.104C75.8598 29.848 75.9718 29.64 76.1478 29.48C76.3398 29.304 76.5798 29.216 76.8678 29.216H78.9798C79.2358 29.216 79.4598 29.304 79.6518 29.48C79.8438 29.64 79.9638 29.856 80.0118 30.128L81.5718 37.304C81.6198 37.608 81.6758 37.912 81.7398 38.216C81.8198 38.52 81.8838 38.832 81.9318 39.152H82.2198C82.2838 38.832 82.3398 38.528 82.3878 38.24C82.4358 37.936 82.4998 37.624 82.5798 37.304L84.5478 29.216H87.4998ZM109.078 28.928C110.118 28.928 110.91 29.208 111.454 29.768C112.014 30.312 112.294 31.112 112.294 32.168V41H109.414V33.056C109.398 32.464 109.278 32.04 109.054 31.784C108.83 31.512 108.438 31.376 107.878 31.376C107.542 31.376 107.214 31.432 106.894 31.544C106.59 31.64 106.246 31.8 105.862 32.024C105.478 32.248 105.014 32.544 104.47 32.912L104.302 31.16C105.118 30.408 105.902 29.848 106.654 29.48C107.422 29.112 108.23 28.928 109.078 28.928ZM96.7178 29.216L97.0058 31.52L97.2938 31.856V41H94.3898V29.216H96.7178ZM101.566 28.928C102.59 28.928 103.374 29.2 103.918 29.744C104.462 30.288 104.734 31.096 104.734 32.168V41H101.95V33.056C101.95 32.432 101.822 32 101.566 31.76C101.31 31.504 100.926 31.376 100.414 31.376C100.094 31.376 99.7738 31.424 99.4538 31.52C99.1338 31.616 98.7818 31.776 98.3978 32C98.0138 32.224 97.5338 32.528 96.9578 32.912L96.7898 31.16C97.5898 30.408 98.3738 29.848 99.1418 29.48C99.9098 29.112 100.718 28.928 101.566 28.928ZM120.812 28.928C122.252 28.928 123.396 29.128 124.244 29.528C125.108 29.928 125.724 30.584 126.092 31.496C126.476 32.408 126.668 33.616 126.668 35.12C126.668 36.624 126.476 37.832 126.092 38.744C125.724 39.64 125.108 40.296 124.244 40.712C123.396 41.112 122.252 41.312 120.812 41.312C119.404 41.312 118.268 41.112 117.404 40.712C116.556 40.296 115.94 39.64 115.556 38.744C115.172 37.832 114.98 36.624 114.98 35.12C114.98 33.616 115.172 32.408 115.556 31.496C115.94 30.584 116.556 29.928 117.404 29.528C118.268 29.128 119.404 28.928 120.812 28.928ZM120.812 31.136C120.108 31.136 119.548 31.256 119.132 31.496C118.732 31.72 118.444 32.12 118.268 32.696C118.092 33.272 118.004 34.08 118.004 35.12C118.004 36.16 118.092 36.968 118.268 37.544C118.444 38.12 118.732 38.52 119.132 38.744C119.548 38.968 120.108 39.08 120.812 39.08C121.532 39.08 122.1 38.968 122.516 38.744C122.932 38.52 123.22 38.12 123.38 37.544C123.556 36.968 123.644 36.16 123.644 35.12C123.644 34.08 123.556 33.272 123.38 32.696C123.22 32.12 122.932 31.72 122.516 31.496C122.1 31.256 121.532 31.136 120.812 31.136ZM131.661 29.216L132.045 31.52L132.309 31.856V41H129.405V29.216H131.661ZM137.421 28.928L137.133 31.616H136.293C135.669 31.616 135.037 31.72 134.397 31.928C133.757 32.136 132.957 32.448 131.997 32.864L131.805 31.16C132.637 30.456 133.485 29.912 134.349 29.528C135.213 29.128 136.045 28.928 136.845 28.928H137.421ZM144.411 28.928C146.315 28.928 147.683 29.264 148.515 29.936C149.347 30.592 149.771 31.568 149.787 32.864C149.803 33.936 149.547 34.752 149.019 35.312C148.507 35.856 147.651 36.128 146.451 36.128H139.731V34.328H145.659C146.203 34.328 146.547 34.184 146.691 33.896C146.851 33.608 146.931 33.256 146.931 32.84C146.915 32.184 146.723 31.728 146.355 31.472C146.003 31.216 145.395 31.088 144.531 31.088C143.779 31.088 143.195 31.192 142.779 31.4C142.363 31.608 142.067 31.984 141.891 32.528C141.731 33.072 141.651 33.856 141.651 34.88C141.651 35.968 141.755 36.808 141.963 37.4C142.171 37.992 142.515 38.4 142.995 38.624C143.475 38.832 144.115 38.936 144.915 38.936C145.507 38.936 146.187 38.912 146.955 38.864C147.739 38.816 148.491 38.752 149.211 38.672L149.499 40.52C149.067 40.696 148.571 40.84 148.011 40.952C147.451 41.064 146.867 41.144 146.259 41.192C145.667 41.256 145.107 41.288 144.579 41.288C143.139 41.288 141.979 41.08 141.099 40.664C140.235 40.232 139.603 39.56 139.203 38.648C138.819 37.736 138.627 36.56 138.627 35.12C138.627 33.568 138.819 32.344 139.203 31.448C139.603 30.536 140.227 29.888 141.075 29.504C141.939 29.12 143.051 28.928 144.411 28.928ZM161.632 28.928C162.432 28.928 163.216 29.04 163.984 29.264C164.752 29.472 165.448 29.824 166.072 30.32L165.88 31.784C165.256 31.608 164.696 31.456 164.2 31.328C163.704 31.2 163.152 31.136 162.544 31.136C161.968 31.136 161.504 31.24 161.152 31.448C160.816 31.64 160.56 32.016 160.384 32.576C160.224 33.136 160.144 33.952 160.144 35.024C160.144 36.048 160.224 36.84 160.384 37.4C160.544 37.944 160.792 38.328 161.128 38.552C161.464 38.76 161.904 38.864 162.448 38.864C162.88 38.864 163.264 38.816 163.6 38.72C163.936 38.608 164.28 38.448 164.632 38.24C164.984 38.016 165.392 37.736 165.856 37.4L166.096 39.032C165.552 39.656 164.88 40.192 164.08 40.64C163.296 41.072 162.384 41.288 161.344 41.288C159.84 41.288 158.768 40.76 158.128 39.704C157.488 38.632 157.168 37.08 157.168 35.048C157.168 33.496 157.328 32.28 157.648 31.4C157.984 30.504 158.48 29.872 159.136 29.504C159.808 29.12 160.64 28.928 161.632 28.928ZM168.448 24.2V41H166.168L165.856 38.888L165.544 38.648V30.776L165.688 30.44C165.624 29.976 165.584 29.512 165.568 29.048C165.552 28.568 165.544 28.08 165.544 27.584V24.2H168.448ZM176.99 28.928C178.894 28.928 180.262 29.264 181.094 29.936C181.926 30.592 182.35 31.568 182.366 32.864C182.382 33.936 182.126 34.752 181.598 35.312C181.086 35.856 180.23 36.128 179.03 36.128H172.31V34.328H178.238C178.782 34.328 179.126 34.184 179.27 33.896C179.43 33.608 179.51 33.256 179.51 32.84C179.494 32.184 179.302 31.728 178.934 31.472C178.582 31.216 177.974 31.088 177.11 31.088C176.358 31.088 175.774 31.192 175.358 31.4C174.942 31.608 174.646 31.984 174.47 32.528C174.31 33.072 174.23 33.856 174.23 34.88C174.23 35.968 174.334 36.808 174.542 37.4C174.75 37.992 175.094 38.4 175.574 38.624C176.054 38.832 176.694 38.936 177.494 38.936C178.086 38.936 178.766 38.912 179.534 38.864C180.318 38.816 181.07 38.752 181.79 38.672L182.078 40.52C181.646 40.696 181.15 40.84 180.59 40.952C180.03 41.064 179.446 41.144 178.838 41.192C178.246 41.256 177.686 41.288 177.158 41.288C175.718 41.288 174.558 41.08 173.678 40.664C172.814 40.232 172.182 39.56 171.782 38.648C171.398 37.736 171.206 36.56 171.206 35.12C171.206 33.568 171.398 32.344 171.782 31.448C172.182 30.536 172.806 29.888 173.654 29.504C174.518 29.12 175.63 28.928 176.99 28.928ZM188.864 25.856V37.448C188.864 37.944 188.968 38.296 189.176 38.504C189.4 38.712 189.776 38.816 190.304 38.816H191.936L192.248 40.856C191.976 40.936 191.648 41.008 191.264 41.072C190.88 41.136 190.504 41.176 190.136 41.192C189.768 41.224 189.456 41.24 189.2 41.24C188.176 41.24 187.376 40.968 186.8 40.424C186.24 39.864 185.96 39.064 185.96 38.024V25.856H188.864ZM192.368 29.216V31.232H183.872V29.336L186.176 29.216H192.368ZM200.443 28.928C201.387 28.928 202.179 29.056 202.819 29.312C203.475 29.552 203.971 29.968 204.307 30.56C204.643 31.152 204.811 31.968 204.811 33.008V41H202.507L202.099 38.456L201.883 38.12V32.984C201.883 32.36 201.739 31.912 201.451 31.64C201.163 31.352 200.611 31.208 199.795 31.208C199.187 31.208 198.419 31.232 197.491 31.28C196.579 31.328 195.659 31.392 194.731 31.472L194.467 29.48C195.027 29.368 195.659 29.272 196.363 29.192C197.067 29.112 197.779 29.048 198.499 29C199.219 28.952 199.867 28.928 200.443 28.928ZM203.563 33.752L203.539 35.552H198.139C197.659 35.568 197.315 35.696 197.107 35.936C196.899 36.176 196.795 36.504 196.795 36.92V37.568C196.795 38.048 196.923 38.416 197.179 38.672C197.435 38.912 197.835 39.032 198.379 39.032C198.811 39.032 199.291 38.944 199.819 38.768C200.347 38.592 200.867 38.336 201.379 38C201.907 37.664 202.379 37.264 202.795 36.8V38.312C202.635 38.552 202.403 38.84 202.099 39.176C201.795 39.496 201.419 39.816 200.971 40.136C200.539 40.456 200.035 40.72 199.459 40.928C198.899 41.136 198.275 41.24 197.587 41.24C196.883 41.24 196.251 41.12 195.691 40.88C195.131 40.624 194.691 40.256 194.371 39.776C194.051 39.28 193.891 38.672 193.891 37.952V36.704C193.891 35.776 194.195 35.056 194.803 34.544C195.427 34.016 196.275 33.752 197.347 33.752H203.563ZM210.944 29.216V41H208.064V29.216H210.944ZM210.152 24.104C210.728 24.104 211.016 24.392 211.016 24.968V26.312C211.016 26.888 210.728 27.176 210.152 27.176H208.856C208.28 27.176 207.992 26.888 207.992 26.312V24.968C207.992 24.392 208.28 24.104 208.856 24.104H210.152ZM217.2 24.2V37.448C217.2 37.896 217.328 38.24 217.584 38.48C217.84 38.704 218.208 38.816 218.688 38.816H219.72L220.056 40.856C219.88 40.936 219.632 41.008 219.312 41.072C219.008 41.136 218.688 41.176 218.352 41.192C218.032 41.224 217.752 41.24 217.512 41.24C216.536 41.24 215.76 40.976 215.184 40.448C214.608 39.92 214.32 39.16 214.32 38.168V24.2H217.2ZM226.114 28.928C226.658 28.928 227.242 28.944 227.866 28.976C228.506 29.008 229.13 29.056 229.738 29.12C230.346 29.168 230.89 29.24 231.37 29.336L231.178 31.232C230.41 31.216 229.642 31.2 228.874 31.184C228.122 31.152 227.378 31.136 226.642 31.136C225.986 31.136 225.466 31.152 225.082 31.184C224.714 31.216 224.45 31.312 224.29 31.472C224.146 31.632 224.074 31.904 224.074 32.288C224.074 32.752 224.202 33.064 224.458 33.224C224.714 33.368 225.13 33.512 225.706 33.656L228.922 34.4C229.882 34.64 230.594 35.008 231.058 35.504C231.522 35.984 231.754 36.728 231.754 37.736C231.754 38.712 231.57 39.456 231.202 39.968C230.85 40.464 230.282 40.808 229.498 41C228.73 41.176 227.746 41.264 226.546 41.264C226.082 41.264 225.394 41.24 224.482 41.192C223.57 41.16 222.57 41.056 221.482 40.88L221.674 38.984C221.994 38.984 222.37 38.992 222.802 39.008C223.25 39.024 223.722 39.032 224.218 39.032C224.73 39.032 225.25 39.032 225.778 39.032C226.626 39.032 227.274 39.008 227.722 38.96C228.186 38.896 228.506 38.776 228.682 38.6C228.858 38.408 228.946 38.136 228.946 37.784C228.946 37.336 228.794 37.04 228.49 36.896C228.202 36.736 227.77 36.584 227.194 36.44L224.05 35.672C223.33 35.48 222.77 35.24 222.37 34.952C221.97 34.648 221.682 34.28 221.506 33.848C221.33 33.4 221.242 32.856 221.242 32.216C221.242 31.352 221.402 30.68 221.722 30.2C222.058 29.72 222.578 29.384 223.282 29.192C224.002 29 224.946 28.912 226.114 28.928Z" fill="white"/>
<defs>
<linearGradient id="paint0_linear_2869_17558" x1="1" y1="31" x2="263" y2="31" gradientUnits="userSpaceOnUse">
<stop stop-color="#121218"/>
<stop offset="1" stop-color="#474350"/>
</linearGradient>
<linearGradient id="paint1_linear_2869_17558" x1="97" y1="65.6269" x2="102.157" y2="21.6313" gradientUnits="userSpaceOnUse">
<stop stop-color="white"/>
<stop offset="0.182692" stop-color="#8C8C8C"/>
<stop offset="0.278846" stop-color="#FF9584"/>
<stop offset="0.399038" stop-color="#DFED43"/>
<stop offset="0.495192" stop-color="#A0F885"/>
<stop offset="0.58953" stop-color="#74BFF7"/>
<stop offset="0.6706" stop-color="#7C72DB"/>
<stop offset="0.75167" stop-color="#8681A8"/>
<stop offset="1" stop-color="white"/>
</linearGradient>
</defs>
</svg>
